<?xml version="1.0" encoding="utf-8"?>
<!-- Generator: Adobe Illustrator 23.1.0, SVG Export Plug-In . SVG Version: 6.00 Build 0)  -->
<svg version="1.1" id="Laag_1" xmlns="http://www.w3.org/2000/svg" xmlns:xlink="http://www.w3.org/1999/xlink" x="0px" y="0px"
	 viewBox="0 0 334.5 362.1" style="enable-background:new 0 0 334.5 362.1;" xml:space="preserve">
<style type="text/css">
	.st0{fill:#FFFFFF;}
	.st1{fill:none;stroke:#FFFFFF;stroke-width:8;stroke-linecap:round;stroke-linejoin:round;stroke-miterlimit:10;}
	.st2{fill:#FFFFFF;stroke:#000000;stroke-width:0.25;stroke-miterlimit:10;}
	.st3{font-family:'MyriadPro-Regular';}
	.st4{font-size:14px;}
	.st5{fill:#3232CE;stroke:#000000;stroke-width:0.25;stroke-miterlimit:10;}
	.st6{font-size:18px;}
	.st7{fill:none;stroke:#000000;stroke-miterlimit:10;}
	.st8{fill:#FFFFFF;stroke:#FFFFFF;stroke-width:0.25;stroke-miterlimit:10;}
	.st9{fill:none;stroke:#FFFFFF;stroke-width:0.25;stroke-miterlimit:10;}
	.st10{fill:#1D1D1B;stroke:#FFFFFF;stroke-width:0.25;stroke-miterlimit:10;}
</style>
<g>
	<g>
		<path class="st0" d="M337.5,360.4c-110.5,0-220.9,0-331.4,0c0-119.7,0-239.3,0-359c110.5,0,220.9,0,331.4,0
			C337.5,121.1,337.5,240.8,337.5,360.4z M166,217.1c-8.4,34.1-16.8,64.5-43.2,87.1c33.5,0,65,0,98.1,0
			c-26.6-22.9-35.1-53-42.8-86.2c27.9,29.4,54,35.6,80.6,20.7c23.2-13,34.3-40,27.5-65.4c-4.4-16.3-13.5-29.9-28.7-35.8
			c-14.2-5.5-30.3-6.1-44.4-8.7c22.8-29,23.2-59.6-0.5-82.9c-21.6-21.3-55-22.7-78.1-3.4c-26.9,22.5-27.7,52.3-2.3,89.6
			c-37-5.5-63.5,7.6-73.6,36.4c-9.3,26.3,0.9,55,24.5,69.3C109.9,253.9,137.7,247.8,166,217.1z"/>
		<path d="M166,217.1c-28.3,30.7-56.1,36.8-82.8,20.7c-23.7-14.3-33.8-43-24.5-69.3c10.1-28.8,36.6-41.9,73.6-36.4
			c-25.4-37.3-24.6-67,2.3-89.6c23-19.3,56.5-17.8,78.1,3.4c23.7,23.3,23.3,53.9,0.5,82.9c14.1,2.6,30.2,3.2,44.4,8.7
			c15.2,5.9,24.3,19.4,28.7,35.8c6.8,25.4-4.3,52.4-27.5,65.4c-26.6,14.9-52.7,8.6-80.6-20.7c7.6,33.3,16.2,63.3,42.8,86.2
			c-33.1,0-64.6,0-98.1,0C149.2,281.6,157.6,251.2,166,217.1z"/>
	</g>
</g>
<path class="st1" d="M93.4,175.8c1-0.3,2-0.5,3-0.7c1.5-0.3,3-0.4,4.5-0.4c14.5,0,26.2,11.7,26.2,26.2s-11.7,26.2-26.2,26.2
	c-10.7,0-19.9-6.4-24-15.6"/>
<polyline class="st1" points="93.1,174.7 93.1,159.5 126,159.5 "/>
<text transform="matrix(1 0 0 1 128.5524 310.0859)"><tspan x="0" y="0" class="st2 st3 st4">BOOMPJE</tspan><tspan x="62.6" y="0" class="st5 st3 st6">5</tspan><tspan x="72.7" y="0" class="st2 st3 st4">.NL</tspan></text>
<path class="st7" d="M134.8,131.1"/>
<g>
	<path class="st0" d="M149.3,234.1c-0.3,0-0.7-0.1-1-0.2c-0.8-0.5-1.6-1.1-2.5-1.9c0.6-0.6,1.1-1.4,1.9-2.1c0.5-0.4,1.2-0.6,1.9-0.8
		c-0.2-0.2-0.4-0.3-0.6-0.5c-1,0.3-2,0.7-2.9,1.5c-0.1,0.1-0.3,0.2-0.5,0.3c-0.2-1.7,0.3-2.9,1.5-3.5c-0.1-0.1-0.2-0.2-0.3-0.3
		c-1,0.6-1.5,1.5-1.7,2.8c-0.1,0.8-0.3,1.5-0.5,2.2c-0.2,0-0.3,0-0.3,0c-1.1-1.4-2.5-2.5-4.1-3.5c-0.5-0.3-0.7-1-1-1.5
		c0.1-0.1,0.2-0.2,0.4-0.4c1.1,0.3,2.1,0.6,3.2,1c0,0,0,0,0.1-0.1c-0.6-0.3-1.2-0.8-1.8-0.9c-1.4-0.3-1.9-1-1.9-2.1
		c0-0.8-0.1-1.5,0.3-2c-0.6-0.1-1-0.3-1.3-0.6c0,0.1,0,0.3-0.1,0.4c-0.7-0.5-1.2-0.9-1.8-1.3c0.1,0,0.3,0,0.4,0
		c-0.1-0.1-0.2-0.2-0.3-0.3c-0.3,0.1-0.5,0.2-0.9,0.2c0.1,0.1,0.3,0.3,0.4,0.5c0.3,0.4,0.9,0.7,1.4,1c0.3,0.2,0.7,0.4,1.1,0.6
		c-2.6,0.1-4.7-1.1-5.7-2.8c0.2,0,0.3-0.1,0.5-0.1c-0.2-0.2-0.4-0.5-0.5-0.8c0,0,0,0,0,0c-0.2,0-0.4,0.1-0.6,0.1
		c-0.5,0-0.9-0.1-1.2-0.2c-0.2,0-0.4,0.1-0.6,0.1c-0.1,0-0.2,0-0.3,0c-0.2,0.1-0.5,0.1-0.8,0.1c-0.2,0-0.3,0-0.5,0
		c-0.6,0.2-1.2,0.5-1.8,0.7c1.4,0.1,2.8,0.1,4.2,0.1c0.7,0,1.2,0.2,1.6,0.7c0.5,0.6,1.1,1.2,1.7,1.5c1,0.5,2.2,0.8,3.3,1.4
		c0.4,0.2,0.7,0.7,0.7,1.1c0.1,1.1,0,2.2,0.1,3.3c0,0.3,0.3,0.8,0.6,0.9c2.5,0.7,3.8,2.4,5.2,4.1c-1.3,1.7-1.5,1.7-3.7,1.4
		c-3.6-0.5-6.5-2.2-9-4.5c-2.9-2.6-6.4-3.9-10.3-4.7c-3.7-0.7-6.4,0.2-8.4,3c-0.5,0.7-1.2,1.2-1.9,1.8c-1.6-2-1.8-2-4.3-1.3
		c-1.1,0.3-2.2,0.5-3.3,0.5c-2.8,0-5.6,0.4-8.3,1.2c-2.7,0.9-2.7,0.9-4.2-1.3c-0.1-0.1-0.1-0.2-0.2-0.3c-0.8-1-1.8-1.1-2.4-0.1
		c-0.8,1.3-1.9,1.4-3.3,1.3c-0.3,0-0.6,0-1.2,0.1c1.2,0.1,2.1,0.2,3,0.3l0.2,0.4c-0.9,0.5-1.7,1.2-2.7,1.6c-2,0.8-4-0.1-4.6-1.9
		c-0.3-1.1-0.2-2,0.2-3.1c0.3-0.6,0.1-1.3,0.2-2.3c-0.4,1.4-0.7,2.4-1,3.5c-0.1,0-0.3,0-0.4,0.1c-1-1.3-2-2.6-3-4.1
		c0.3,0.8,0.6,1.4,0.9,2.3c-1.6-0.3-2.3-1.2-2.9-2.2c-0.1-0.1-0.2-0.4-0.2-0.4c-1,0.3-1-0.5-1.1-0.9c-0.2-0.9-0.3-1.8-1.5-2.2
		c-0.1,0-0.2-0.4-0.3-0.5c-0.1-1-0.2-2-0.3-2.9c-0.4,0-0.7,0.1-1,0.1c0.2,0.3,0.5,0.8,0.7,1.2c0.3,1.1,0.1,2.4,1.6,3.1
		c0.2,0.1,0.3,0.5,0.3,0.8c0.3,2,2,3.2,3.8,4c1.9,0.8,2,2.3,2.9,3.6c-0.5-0.1-0.9-0.2-1.2-0.4c-2.1-1.4-4.4-2.7-6.3-4.3
		c-1.2-1.1-2.2-2.6-2.7-4c-0.6-1.8-0.6-3.7-0.7-5.5c-0.1-2.4-0.3-2.8-2.7-4.4c0.3,0.4,0.4,0.6,0.6,0.8c1.3,0.9,1.4,2.2,1.5,3.5
		c0.1,2,0.4,3.9,0.7,5.9c0.1,0.5,0.4,1,0.7,1.4c1.7,2.5,3.9,4.7,6.8,6.2c0.4,0.2,0.7,0.6,1.1,0.9c-0.1,0.1-0.1,0.3-0.2,0.4
		c-2.6-1.1-5.2-1.3-7.9-0.4c2.7-0.1,5.3-0.2,7.8,0.8c0.2,0.1,0.5,0.1,0.7,0.1c1.3-0.2,2.2,0.3,3.1,1.1c1.4,1.3,3.2,1.7,5,0.8
		c1.2-0.6,2.2-1.6,3.6-2.6c0.9,0.2,2.2,0.4,2.9,1.7c0.5,1,1.5,1.3,2.7,1.2c1-0.1,2.1-0.1,3.2-0.2c1.5-0.1,2.8,0.1,3.8,1.2
		c0.5,0.6,1.2,1,2.1,0.6c2.5-0.9,4.9-1.9,7.5-2.8c0.2,0.3,0.4,0.6,0.6,0.9c1.7,2.4,4.6,3.3,7.6,2.1c1-0.4,2.1-0.8,3.1-1.3
		c1.7-0.8,3.8,0.2,4.1,2c-0.2,0-0.4,0.1-0.7,0.1c-3.3,0.2-6.6,0.4-9.9,0.6c-1.9,0.1-3.6-0.2-5.3-1c-0.6-0.3-1.2-0.4-1.9-0.5
		c-3.1-0.2-5.8,0.7-8.2,2.3c-0.8,0.5-1.6,1-2.4,1.4c-0.3,0.1-1.2-0.1-1.4-0.3c-1.6-2.4-4.7-2.3-7.2-3.3c1.2,0.6,2.4,1.1,3.7,1.6
		c1.3,0.5,2.4,1,2.8,2.4c0.3,0.9,1.1,1.1,1.9,0.6c1.2-0.6,2.3-1.3,3.5-1.9c0.8-0.4,1.6-0.7,2.4-1.1c-0.5,1.3-0.9,2.3-1.2,3.4
		c-1,3-0.6,2.5-3.7,3c0,0-0.1,0.1-0.2,0.2c0.7,0,1.3,0,1.9,0c1.7-0.1,2.1-0.4,2.4-1.8c0.2-0.7,0.2-1.5,0.4-2.2
		c0.6-2.7,3.9-3.7,6.4-2.2c0.6,0.4,1.5,0.6,2.2,0.6c2.7,0,5.5-0.1,8.2-0.2c0.5,0,1-0.1,1.5,0c0.3,0.1,0.8,0.2,0.9,0.5
		c0.1,0.2-0.2,0.6-0.5,0.7c-1.2,0.7-2.4,1.5-3.7,2c-1.2,0.4-2.2,1.1-3,1.9c-0.4,0.4-0.7,0.9-1.2,1.2c-0.7,0.4-1.4,0.8-2.2,0.9
		c-0.8,0.1-1.6-0.1-2.4-0.2c-1.8-0.2-3.7-0.3-5.5-0.5c0.5,0.3,1.1,0.4,1.7,0.5c2.4,0.3,4.8,0.6,7.2,0.7c0.7,0,1.6-0.3,2-0.7
		c1.3-1.4,3-2.3,4.9-3c1.2-0.5,2.4-1.1,3.4-1.7c0.8-0.5,1.4-1.3,2.3-1.8c0.6-0.4,1.4-0.7,2.1-0.7c2.6,0,5.2,0.2,7.9,0.3
		c0,0.3-0.1,0.8-0.1,1.3c0,0.5,0,1.1,0,1.7c-0.7-0.1-1.2-0.2-1.7-0.2c0.1,0.2,0.2,0.2,0.4,0.3c1.7,0.6,1.9,0.4,1.8-1.1
		c-0.1-1.7,1.6-3.1,3.6-2.8c0.5,0.1,1.1,0,1.6,0c1.8,0.2,3.8,0.1,5.5,0.6c1.3,0.4,2.6,0.8,3.9,0.5 M109.4,230.5
		c-0.9,0.4-1.7,0.8-2.7,1.1c-1.2,0.4-2.5,0.8-3.8,1.2c-0.4,0.1-1,0-1.3-0.2c-1.3-1.1-2.8-1.1-4.4-0.7c-1.5,0.4-3,0.6-4.3-0.3
		c3.1-1.5,6.4-1.9,9.9-1.9c1.6,0,3.2-0.1,4.9-0.1c0.6,0,1.1,0.3,1.7,0.5C109.4,230.2,109.4,230.3,109.4,230.5z M128.2,235.4
		c-0.7-0.2-1.2-0.9-1.8-1.4c-0.4-0.4-0.7-0.9-1.2-1.3c-1-1-2.1-1.1-3.3-0.3c-1.1,0.7-2.3,1.3-3.5,1.9c-2.2,1.2-4.6,0.7-6-1.3
		c-0.2-0.4-0.5-0.7-0.7-1.1c1.8-1.3,3.4-2.7,5.3-3.8c2.8-1.6,4.5-1.4,7.3,0.2c3.2,1.8,6.1,3.7,8.7,6c0.6,0.5,1.3,0.9,2.3,1.5
		C132.7,236.2,130.4,235.9,128.2,235.4z M144,234.5c1.2-1.5,1.2-1.5,3.2-0.4C146,234.2,145,234.3,144,234.5z"/>
</g>
<path d="M131.5,152.7c0.7,0.5,1.3,0.9,2,1.4c1.1-0.4,2.2-0.9,3.3-1.3C135,152.8,133.3,152.7,131.5,152.7"/>
<path class="st8" d="M130.5,153.8"/>
<path class="st8" d="M127,154.6c-0.8,0.3-3.7-0.9-4.6-0.8c1.4,0.2,4.8,3.5,5.9,4.2c0.9,0.6,4.5,2.5,5.2,3.2c0.8-2.3-2-2.7-1.9-4.6
	c0.1-0.8,1.5-2.5,2-3.2c0-0.1,0.1-0.1,0.1-0.2c0-0.1-3.1-1.2-3.2-1.2"/>
<g>
	<path class="st0" d="M281.9,207.1c0,0.1-0.2,0.1-0.2,0.1c-1.9,0.3-2.7,1.8-3.6,3.4c-0.4,0.8-1.4,1.6-2.1,1.6
		c-2.3,0.1-4.7,0.3-6.9-0.5c-2.8-1-5.6-1.5-8.5-1.6c-2.6-0.1-4.7-1.2-6.8-2.8c0.8-0.8,1.5-1.4,2.2-2.2c1.1-1.4,2.4-1.6,4-1.1
		c0.8,0.2,1.5,0.4,2.3,0.5c3.2,0.4,6.4,0.2,9.6,0.2c0.5,0,1.2-0.3,1.6-0.6c1-0.8,2.1-0.8,3.2-0.7c1.3,0.1,2.6,0.1,3.4-1.3
		c0.7-1.2,1.8-1.8,3.1-2c0.5-0.1,1-0.7,1.5-1c-0.1-0.1-0.1-0.2-0.2-0.3c-0.5,0.3-1,0.7-1.5,0.9c-1.3,0.3-2.4,0.9-3.3,2
		c-1.2,1.4-3.2,1.6-4.6,0.6c0.5-0.7,0.8-1.6,1.5-2.1c0.6-0.5,1.4-0.6,2.2-0.9c-2-0.1-3.4,0.7-4,2.8c-0.1,0.3-0.3,0.5-0.5,0.7
		c-1.2,1.6-4,1.8-5.2,0.4c1.1-1.4,2.1-2.9,3.2-4.3c-0.7,0.3-1.3,0.8-1.6,1.4c-1.1,2-2.3,3.7-4.7,3.8c-0.8,0-1.7,0.2-2.5,0
		c-1.4-0.3-3-0.1-4.3-1.2c0.7-1.5,1.7-2.2,3.1-2.5c0.8-0.2,1.7-0.8,2.1-1.5c0.7-1.1,1.4-2.1,2.8-1.9c-1.5-0.4-2.5,0.1-3.2,1.5
		c-0.3,0.6-1.1,1.2-1.7,1.3c-1.4,0.3-2.6,0.8-3.3,2.3c-0.1,0.3-0.6,0.7-0.8,0.7c-1.4,0-2.1,1.1-2.9,2c-0.6,0.7-1.3,1.5-1.9,2.1
		c-4.4-2.9-8.7-6.1-14.2-3.1c0-1.8,0.7-2.6,2.1-2.7c1.5-0.1,3.1-0.1,4.6-0.1c1.6,0,3.2,0,4.8,0l0-0.4c-0.3-0.1-0.7-0.2-1-0.1
		c-1.9,0.5-3.8,0.8-5.6,0.5c-3.3-0.6-5.7-1.1-5.8,1.8c0,1.5-0.9,1.8-2.1,1.8c-4.7-0.1-9.2-1.3-13.5-3.1c-1.5-0.7-3.1-1.3-4.6-2.1
		c-0.5-0.2-0.8-0.9-1.2-1.3c0.5-0.3,1-0.8,1.5-0.9c1.8-0.4,3.7-0.6,5.5-0.9c2.9-0.5,5.9-0.7,8.6-1.7c3.6-1.4,7.2-2.3,11-2.3
		c0.6,0,1.3,0.5,1.9,0.9c0.7,0.4,1.4,1.3,2,1.2c3.5-0.2,6.9-0.7,10.4-1.1c0-0.1,0-0.3,0-0.4c-0.6,0-1.1-0.1-1.7,0
		c-2.1,0.2-4.2,0.6-6.4,0.8c-1.5,0.2-2.8,0-3.6-1.8c4.3-0.9,8.2-3.8,12.8-2.7c0.8,2.4,1.9,3,4.8,2.3c-1.4-0.5-3.5,0.1-3.6-2.5
		c0.5-0.1,0.9-0.2,1.3-0.3c3.3-0.4,6.6-1.1,9.7-2.7c0.8-0.4,1.7-0.6,2.6-0.8c2.1-0.3,3.3-1.4,3.7-3.7c0.4-2.4,1-2.8,3.2-2.7
		c2.7,0,5.4,0,8.1,0c0,0,0-0.1,0-0.1c-3.2-0.5-6.3-0.7-9.5-1c-1.6-0.1-2.6,0.6-3,2.2c-0.4,1.6-1.4,2.4-2.8,2.9
		c-1.2,0.4-2.3,1-3.5,1.4c-0.8,0.3-1.6,0.5-2.4,0.7l-0.2-0.4c1.6-2.6,4.7-2.6,6.8-4.4c-1.7,0.5-3.3,1.2-4.9,1.9
		c-1.2,0.5-2.1,1.3-2.9,2.5c-0.3,0.5-1.2,0.7-1.8,0.7c-0.6-0.1-1.1-0.6-1.6-1.1c-1.8-1.7-3.8-2.9-6.1-3.5c-0.7-0.2-1.4-0.5-2-0.6
		c0.9-0.7,1.9-1.4,2.8-2.2c1.4-1.2,2.8-2.5,4.1-3.8c1.7-1.7,3.4-1.5,5.2-0.5c0.3,0.2,0.7,0.4,1,0.5c1.5,0.2,3.1,0.6,4.5,0.4
		c2.5-0.4,5-1.3,7.5-2c-2.3,0.2-4.5,0.7-6.8,1.1c-1.1,0.2-2.3,0.5-3.4,0.3c-1.6-0.4-3.2-1.2-5-1.9c0.9-0.6,1.7-1.1,2.5-1.5
		c2.1-1.1,4.2-1.9,6.7-1.6c2.8,0.4,5.7,0.6,8.6-0.2c0.9-0.3,1.8-0.3,2.7-0.3c-0.2-0.4-0.3-0.8-0.4-1.2c-0.9,0-1.9,0.1-2.8,0.5
		c-2,0.8-3.9,1-5.9,0.4c-3.7-1-7.1-0.2-10.3,1.8c-0.8,0.5-1.7,0.8-2.6,1.2c-0.3,0.1-0.7,0.2-1,0.2c-0.1-0.1-0.2-0.3-0.3-0.4
		c1.1-1.3,2-3.2,3.3-3.9c1.9-1,3.4-2.2,4.2-4.3c0.3-0.8,0.5-1.7,1-2.3c0.6-0.7,1.4-1.5,2.2-1.8c2-0.6,4-0.9,6-1.3
		c0.4-0.1,0.8-0.1,1.1-0.1c-0.4-0.5-0.6-1-0.8-1.6c-1.5,0.5-3.1,0.8-4.7,0.9c-2,0.1-2.6-0.4-2.2-2.6c0.5,0,1.1-0.1,1.8-0.1
		c-0.6-0.2-1-0.3-1.6-0.4c0.6-1.3,1.3-2.5,2.1-3.6c-0.4-0.3-0.7-0.7-0.9-1.2c-0.7,0.7-1.4,1.4-2.1,2.2c-0.1-0.6-0.3-1.1-0.4-1.6
		c-0.1-0.5-0.2-1.1-0.3-1.6c-0.4-1.3-2-2.5-3.2-2.3c-0.2,0-0.3,0.3-0.4,0.5c-0.3,0.1-0.8,0.2-1,0.4c-1.6,1.7-3.2,3.5-4.8,5.2
		c-0.5,0.5-1,1.1-1.6,1.2c-1.5,0.3-6,1.6-7.4,1.3c-2.8-0.4-3.5-1.3-5.2-1c-2.3,0.5-6-3.5-7.4-5.4c0,0-7-4.2-7-4.7
		c1.4,0.6,2.7,1.1,3.9,1.6c0.9,0.3,2,1,2.7,0.7c1.7-0.7,3.3-1.4,5.2-1.1c0.6,0.1,1.3,0.1,2.1,0.2c-2.2-1.8-4.6-0.5-6.9-0.8
		c0.5-0.8,1.1-1.4,1.7-2c0.8-0.8,1.6-0.8,2.6-0.4c1.6,0.8,3.3,1.5,5,2.4c0.9,0.4,1.6,0.5,2.3-0.2c0.7-0.7,1.1-0.4,1.8,0.1
		c0.9,0.6,1.9,1.2,2.9,1.5c1.1,0.3,2.2,0.4,2.3,2c0,0.4,0.4,0.8,0.6,1.2c0.1-0.4,0-0.6-0.1-0.9c-0.5-1.3-0.2-1.9,1.2-2.1
		c1-0.1,1.9-0.7,2.9-0.9c1.5-0.3,3.1-0.5,4.6-0.6c0.2,0,0.4,0,0.5,0c-0.7-0.3-1.3-0.7-1.8-1.2c-0.2,0.1-0.4,0.3-0.6,0.4
		c-1.3,0.7-2.8,0.8-4.2,1.1c-3,0.6-6,0.9-8.1-2.2c-0.2-0.3-0.5-0.5-0.8-0.6c-0.4-0.1-1-0.1-1.1,0.1c-1.5,2.1-3.1,1-4.6,0.2
		c-1-0.6-2-1.4-3-1.9c-1.6-0.9-2.2-0.6-3.3,0.9c-0.4,0.6-0.9,1.4-1.4,1.8c-0.5,0.4-1.2,0.6-1.8,0.9l-0.2-0.4
		c0.5-0.8,1.2-1.5,1.5-2.3c1-2.7,3.2-4.1,5.1-5.8c0.2-0.1,0.3-0.2,0.5-0.3c-0.5,0-1.1-0.1-1.5-0.2c-2,1.3-3.8,3-5.4,5
		c-0.7,0.9-1.8,1.7-2.8,2c-1.1,0.3-2.4,0.2-3.6,0.1c-0.8-0.1-1.5-0.7-2.6-1.3c0.8-0.5,1-0.8,1.4-0.9c2.2-0.6,4-2.1,5.6-3.8
		c0.8-0.9,1.7-1.5,2.6-2c-0.3,0-0.6-0.1-0.9-0.1c-0.8,0.5-1.6,1.1-2.3,1.8c-0.7,0.7-1.4,1.4-2.1,1.9c-2.5,1.7-5.2,2.5-8.1,1.6
		c-0.7-0.2-1.3-0.6-1.9-1c1.8-2.3,3.3-2.5,5.2-1.1c1,0.7,1.6,0.5,1.8-0.8c0.2-1.3,0.6-2,2-1.4c0.7,0.3,1.7,0,2.5,0
		c-1-0.4-2-0.4-2.9-0.8c-1-0.4-1.6-0.2-1.9,0.9c-0.5,1.5-0.9,1.7-2,0.7c-0.9-0.8-1.6-0.8-2.6-0.4c-0.7,0.3-1.5,0.6-2.1,1.1
		c-2.4,2-4.7,0.3-7.1,0.2c2-2.2,4.1-4,6.8-4.9c-0.4,0-0.8-0.1-1.2-0.1c-1.7,0.6-3.3,1.8-4.7,3.1c-1.4,1.2-2.7,1.6-4.3,1.1
		c-0.9-0.3-1.8-0.5-2.7-0.9c-0.4-0.2-0.8-0.6-1.2-0.9c0.3-0.4,0.6-0.8,0.9-1c1.7-1.1,4.3-2.3,6.1-3.1c0.4-0.2-0.1-0.3,0.4-0.4
		c-0.3-0.7-0.2-1.4,0.6-2c0,0,0.1-0.1,0.1-0.1c0,0,0,0,0,0c-1.7,0.2-2.3,1.3-4.1,1.4c-1-3.2-1.6-5.2,1-6.9c1.6-1.1,3-2.3,4.4-3.6
		c0.8-0.7,1.5-1,2.5-1c0.9,0,1.7,0.1,2.5,0.2c0.3-0.7,0.7-1.4,1.1-2c-0.9,0.1-1.9,0-3.2,0c0.7-0.7,1.1-1.2,1.6-1.6
		c-0.7,0.2-1.1,0.8-1.7,1c-0.5,0.2-1.3,0-1.7-0.4c-0.3-0.2-0.3-1.3-0.1-1.5c1-0.8,2-1.8,3.1-2c1.3-0.2,2.7-0.1,4.1,0.2
		c0.1-0.1,0.1-0.3,0.2-0.4c-1.6-0.2-3.2-0.4-4.8-0.7v-1c-1.6,2-3.1,3.9-4.6,5.7c-0.7,0.9-1.8,1.2-2.9,0.8c0.4-1.9,0.9-3.7,1.3-5.5
		c-0.5,1.4-1.2,2.8-1.6,4.3c-0.3,1.1-0.8,1.4-1.7,1c-1.4-0.6-2.8-1.3-4.4-2c0.8-1.6,1.5-2.9,2.1-4.1c-1.6,0.4-1.5,2.3-2,3.4
		c-2.4-0.5-4.6-1-6.9-1.4c-0.1-2.4,0.4-2.9,2.4-3.6c1-0.3,2-1,2.9-1.7c0.7-0.6,1.4-1.4,2-2.1c2.4-2.6,5.3-2.6,8.3-1.9
		c1.5,0.3,3,0.5,4.7,0.8c0,1.1-0.2,2.3-1.6,3.1c-0.8,0.4-1.4,1.1-2.2,1.6c2.3-0.7,4.1-1.9,4.3-4.9c0-1,0.7-1,1.4-0.8
		c0.8,0.3,1.6,0.6,2.4,0.9c-0.8-0.6-1.5-1.2-2.5-1.9c0.8-1.2,1.6-2.5,2.4-3.7c-0.1-0.1-0.3-0.3-0.4-0.4c-0.4,0.7-0.8,1.4-1.3,2.1
		c-0.6,0.8-0.8,1.8-2.1,2.3c-1.5,0.6-2.7,0.8-4.1,0.6c-1.5-0.2-3.1-0.5-4.6-0.8c-0.3,0-0.6-0.1-0.7-0.2c0.9-0.9,1.7-1.8,2.5-2.6
		c0.2-0.2,0.7-0.4,1.1-0.3c0.7,0.1,1.4,0.3,2.1,0.4c0,0,0-0.1,0-0.1c-0.8-0.3-1.6-0.6-2.6-0.9c1-2.1,2-3.8,3.9-4.6
		c1.1-0.4,2.2-1.2,3.2-1.8c1.3-0.9,2.5-1.9,3.8-2.7c1.8-1.2,3.6-2.3,5.5-3.3c0-0.1,0-0.3,0-0.4c0,0,0-0.1,0-0.1c0-0.2,0-0.3,0-0.5
		c-0.1,0.1-0.2,0.2-0.4,0.4c-1.1,0.8-2.1,1.8-3.3,2.5c-1.2,0.7-2.6,1-3.9,1.4c-0.1-0.1-0.1-0.1-0.3-0.3c0.5-1.2,0.6-2.8,1.5-3.6
		c3.1-3,2.2-2.6,2.8-6.4c-0.3,0.7-0.3,1.5-0.6,2.2c-0.5,1.1-0.8,2.5-1.6,3c-1.6,0.9-2.1,2.7-3.2,4c-0.6,0.7-0.7,2-1.3,2.8
		c-0.5,0.7-1.4,1.2-2.2,1.6c-0.3,0.2-1.1-0.1-1.1-0.2c0-0.6,0.1-1.2,0.2-1.8c0-0.1-0.1-0.1-0.2-0.4c-0.3,0.8-0.5,1.5-0.9,2.6
		c-1.9-0.4-4.1-0.4-5.7-1.5c-2.3-1.7-4.5-3-7.2-3.2c-0.2,0-0.3-0.1-0.6-0.3c0.3-0.3,0.5-0.5,0.7-0.6c2.9-0.8,4.9-2.8,6.8-5.2
		c0.3-0.3,0.6-0.6,0.9-0.9c1.2-1.3,2.7-1.9,4.4-1.8c1.4,0.1,2.9,0.1,4.3,0.1c1.9,0,3.9-1.5,4.6-3.6c-2,3-4.8,3.3-7.9,3
		c-0.8-0.1-1.6-0.2-2.4,0c-1,0.2-2.1,0.4-2.7,1.1c-4.2,4.6-9.6,6.6-15.1,8.3c-0.4,0.1-0.9,0.1-1.7,0.1c0.5-1,0.8-1.7,1.2-2.4
		c1.7-2.8,3.1-5.8,3.8-9.1c0.7-3,2.1-5.4,5.5-5.3c0.1,0,0.2,0,0.3-0.1c1.8-0.7,3.1-0.4,4.3,1.3c0.6,0.8,1.4,1.4,2.2,1.9
		c1.1,0.7,2.2,0.6,3.3-0.3c2.1-1.8,4.3-3.7,6.4-5.6c1.3-1.2,2.6-2,4.2-2.2c-0.1-0.2-0.1-0.3-0.2-0.5c-0.3,0-0.5,0-0.7,0.1
		c-0.6,0.1-1.3,0.2-1.9,0.4c-0.5,0.2-1.1,0.4-1.3,0.8c-1.2,2.3-3.4,3.3-5.3,4.8c-1.5,1.2-3.6,1.3-5.1,0.1c-0.6-0.5-0.9-1.5-1.4-2.3
		c0.7-0.3,1.3-0.8,2-1c1.3-0.5,2.8-0.6,3.9-1.4c1.6-1,3-2.5,4.4-3.8c-1.3,0.6-2.5,1.3-3.6,2.1c-0.8,0.6-1.5,1.5-2.4,1.7
		c-3.2,0.9-6.5,1.7-9.8,2.4c-0.6,0.1-1.2,0.1-1.6,0.1c0.9-3.8,1.8-7.3,2.6-10.8c0.3-1.3,0.6-1.9,1.9-1.3c1.4,0.6,2.7,0.4,4-1.2
		c-0.9,0.3-1.5,0.6-2.1,0.6c-0.6,0.1-1.3,0.1-1.9-0.2c-2.1-0.9-2.2-0.7-2.8,1.7c-0.6,2.9-1.4,5.7-2.2,8.6c-0.2,0.9-0.7,1.4-1.6,1.2
		c-3-0.7-5.6-2.2-7.3-4.9c1.6-1.9,3.1-3.7,4.6-5.4c0.2-0.2,0.5-0.3,0.7-0.4c2.7-1.2,5.3-2.6,8.1-3.7c1.8-0.7,3.8-0.9,5.7-1.2
		c0.4-0.1,1,0.2,1.4,0.5c1.7,1.2,1.9,1.3,3.3-0.2c-0.1-0.1-0.2-0.2-0.3-0.4c-0.6,0.7-1.4,0.7-2.3,0.1c-0.8-0.5-1.7-0.8-2.6-0.9
		c-1.3-0.1-2.7-0.1-4,0.1c-1.1,0.2-2.2,0.7-3.2,1.2c-1.7,0.9-3.4,1.9-5.2,2.8c-0.4,0.2-0.8,0.1-1.6,0.1c0.4-0.9,0.6-1.5,0.9-2
		c1.4-2.3,2.9-4.7,4.4-7c0.8-1.2,1-2.3,0.3-3.6c-0.2-0.4-0.1-1.2,0-1.7c0.1-0.2,0.1-0.5,0.2-0.7c-0.2-0.2-0.5-0.3-0.7-0.5
		c-0.2,0.3-0.4,0.6-0.5,1c-0.2,0.5-0.3,1.4,0,1.7c1.2,1.4,0.7,2.6-0.1,3.8c-0.5,0.8-1.1,1.5-1.7,2.2c-1.5,1.5-2.5,3.3-3.1,5.4
		c-1,3.1-3.2,5.2-5.5,7.3c-0.3-0.4-0.5-0.8-0.5-0.7c-0.2,0.8-0.5,1.7-0.8,2.5c-0.2,0.6-0.4,1.2-0.7,1.8c-0.5,0.8-1,1.6-1.6,2.6
		c-0.6-0.9-1.2-1.5-1.4-2.2c-0.2-0.7,0.2-1.5,0.3-2.3c-0.3,0.5-0.6,0.9-1,1.6c-1-1-1.9-1.9-2.7-2.9c-1.4-1.7-1.5-2.3-0.4-4.3
		c0.6-1.2,1.5-2.3,2.2-3.5c1.2-2,2.5-3.7,5.3-3.1c-1.5-1.1-4.6-0.5-5.6,1.1c-1.2,2.1-2.3,4.3-3.4,6.5c-0.5,1-0.2,1.9,0.6,2.8
		c1.9,2.2,3.6,4.5,5.5,6.9c-2.4,1.9-2.9,4.4-3.3,7c-0.2,1-0.5,2.1-0.9,3c-2.2,4.6-4.5,9.1-6.8,13.7c-0.1,0.1-0.2,0.2-0.4,0.3
		c-0.4-0.7-1.6-0.9-0.9-2.1c-1.4,0.4-1.2-1.1-1.2-2c0.1-1.3,0.6-2.6,1.1-3.8c0.7-1.6,2.5-0.3,3.5-1.2c-0.8,0.1-1.6,0.1-2.7,0.2
		c0.9-1.6,1.7-2.9,2.5-4.2c0.7-1.2,0.8-2.4,0.1-3.8c-0.5-1-0.5-2.4-0.5-3.6c0.1-1.4,0.5-2.7,0.6-4.1c0.1-1.9,0-3.9,0.2-5.9
		c0.2-3.3,0.6-6.6,0.1-9.9c-0.4-2.5,0.6-4.5,2.8-5.7c2.4-1.3,4.8-2.7,7.1-4.1c0.5-0.3,0.9-0.6,1.4-0.9c-3,1.3-6,2.7-8.9,4.2
		c-2.4,1.3-3.4,1.4-5.3-0.7c-0.8-0.9-1.4-2.1-1.8-3.3c-0.8-2.3,0.1-3.6,2.3-3.8c0.9-0.1,1.9,0,2.8-0.1c0.9-0.1,1.5-0.6,1.2-1.7
		c-0.3-1.3,0.1-2.1,1.3-2.7c0.6-0.3,1.1-0.8,1.5-1.3c-0.2,0-0.4,0-0.7,0c-0.4,0.4-1,0.8-1.6,1.2c-0.6,0.4-1.2,1.3-1.1,2.1
		c0,1.3-0.5,1.6-1.4,1.8c-1,0.2-1.6-0.5-1.9-1.3c-0.5-1.2,0.1-2.4,1.4-3.4c0.4-0.3,0.9-0.7,1.3-1.2c-0.2,0-0.5,0-0.7-0.1
		c-0.3,0.2-0.5,0.4-0.8,0.6c-0.1-0.3-0.2-0.5-0.3-0.8c0,0,0,0,0,0c-0.2,0-0.3,0-0.5,0c0,0.1,0,0.2,0,0.3c0.1,1-0.5,2-0.8,3
		c-0.2,0-0.2,0-0.5,0c-0.6-1.3-1.2-2.5-1.8-3.8c0,0,0,0,0,0c-0.2,0-0.4,0-0.6,0c0.3,0.4,0.5,1,0.7,1.7c0.2,1,1,1.8,1.3,2.8
		c0.2,0.8,0.4,2.1,0,2.4c-0.8,0.8-1.6,2.2-3.1,1.3c1.2,2.8,2.4,5.7,3.7,8.5c-0.1,0.1-0.1,0.1-0.2,0.2c-1-0.8-1.9-1.7-3-2.6
		c0.2,0.3,0.2,0.6,0.4,0.8c0.7,0.7,1.3,1.5,2.1,2c2.3,1.3,2.6,3.6,2.8,6c0.4,4.4,0.2,8.9-0.7,13.2c-0.4,2-0.7,4-1,6.1
		c-0.1,0.6,0.1,1.2,0.2,1.8c0,0.3,0.1,0.8,0,0.9c-0.2,0.2-0.7,0.2-0.9,0.1c-0.8-0.7-1.7-1.4-2.1-2.4c-0.8-1.7-1.4-3.6-2-5.4
		c-0.1-0.4,0.3-1,0.4-1.5c-0.2,0.1-0.5,0.2-0.9,0.4c-0.1,0-0.2-0.1-0.2-0.1c-1.7-1.7-3.4-3.5-5.1-5.2c-0.3-0.3-0.7-0.6-0.7-1
		c0-2.2-0.1-4.4,0.1-6.5c0.1-1.7,1-3.2,2.3-4.3c0.4-0.4,0.8-0.9,1.1-1.5c-0.4,0.3-0.8,0.6-1.1,0.9c-1.1,0.9-1.7,0.7-1.7-0.8
		c-0.1-2,0.1-4,0.1-6c0-0.5-0.1-1.1-0.1-1.7c-0.1-2.4,1.5-3.4,3.5-2.4c0.3,0.2,0.8,0,1.2,0.1c0.7,0.1,1.4,0.3,2.1,0.5
		c-0.3-1.1-0.9-1.5-2-1.1c-0.4,0.2-0.9,0-1.7-0.1c0.5-0.5,0.8-0.7,1-1c-0.6,0-1.2,0.1-1.8,0.1l-0.1,0.1c-0.6,0.3-1.2,0.8-1.8,0.8
		c-0.3,0-0.8-0.8-0.9-1.2c-0.3-1.8-0.6-3.5-0.8-5.3c-0.1,0-0.2,0-0.3,0c-0.1,0-0.2,0-0.3,0c-0.1,0.6-0.2,1.2-0.2,1.7
		c0.6-0.5,0.8-0.1,0.9,0.5c0.2,2.1,0.5,4.2,0.6,6.3c0,0.6-0.4,1.1-0.6,1.7c-0.4-0.3-0.8-0.6-1.3-0.9c-2.3-1.5-1.2-3.6-0.8-5.6
		c-0.4,1-0.8,1.9-1.2,2.8c-2.5-1.9-2.1-3.9-1.3-6c-0.2,0-0.3,0.1-0.5,0.1c0,0-0.1,0.1-0.1,0.1c-1.2,1.9-0.6,3.5,0.4,5.1
		c0.3,0.4,0.7,0.7,0.9,1.2c0.2,0.4,0.3,0.8,0.3,1.2c-0.3,1.5-0.5,3-0.9,4.4c-0.5,1.5-1.2,3-1.8,4.4c-0.1,0-0.3,0-0.4-0.1
		c-0.2-0.5-0.5-1-0.7-1.5c-0.9-3.6-1.9-7.1-2.6-10.8c-0.2-0.9,0.1-1.9,0.3-2.8c-0.3,0.1-0.7,0.2-1,0.3c0,0.2,0,0.5,0,0.7
		c0.1,0.8,0.3,1.7,0.4,2.5c0.8,3.8,1.5,7.7,2.3,11.5c0.2,1.1,0.4,2.2-0.9,2.7c-0.2,0.1-0.4,0.3-0.4,0.5c-0.4,1.4-1.4,1.4-2.5,1.1
		c-0.6-0.1-1.1-0.3-1.6-0.4c0,0.1-0.1,0.2-0.1,0.2c0.8,0.6,1.7,1.2,2.6,1.9c-0.6,0.4-0.9,0.7-1.3,1c-1.9,1.2-3.4,0.9-4.9-0.9
		c-0.8-1-1.6-2.1-2.4-3.1c0,0.6,0.1,1,0.4,1.4c0.9,1.3,1.8,2.7,2.9,3.9c1.7,2,1.8,2.3,0.7,4.6c-0.5-0.1-1.1-0.3-1.6-0.4
		c0.4,0.3,0.9,0.4,1.4,0.5c0.3,0.1,0.6,0.3,0.7,0.6c0.1,0.2-0.2,0.7-0.4,0.9c-2,1.9-4,3.7-6.1,5.5c-0.5,0.4-1.3,0.4-1.9,0.6
		c0-0.7-0.2-1.4,0-2c1-3.1,1.6-6.2,1.5-9.4c0-0.6,0.1-1.3,0.3-1.9c0.1-0.4,0.4-0.7,0.6-0.9c-0.1-0.1-0.5-0.4-0.5-0.7
		c0.1-1.6,0.1-3.2,0.5-4.8c0.6-2.8,1.5-5.5,2.3-8.2c0.5-1.7,0.9-3.4,1.4-5c-0.2,0.1-0.4,0.2-0.6,0.3c-0.1,0.5-0.3,1-0.4,1.5
		c-1.2,3.7-2.9,7.2-3.2,11.2c-0.1,1.6-1.4,1.9-2.6,2c-1.3,0.1-2.5-0.2-3.2-1.6c-0.8-1.8-0.2-4.3,1.1-5.6c0.5-0.5,1.1-1,1.2-1.6
		c0.1-1.7,0.8-2.1,2.2-1.5c-0.5-0.4-0.9-0.8-1.3-0.8c-0.3,0-1,0.4-1,0.6c-0.1,1.4-0.8,2.3-1.7,3.2c-1,1.1-1.8,2.3-1.1,4
		c0.2,0.4,0,0.9,0,1.6c-1.6-1.4-2.6-3-3.2-4.8c-0.1,0.1-0.3,0.2-0.4,0.4c0.5,1.5,1.3,3,2.2,4.5c-1.5,0.1-2.9-1-4.1-3
		c-0.1,0.1-0.3,0.3-0.4,0.4c2.3,3.6,6.3,4.1,9.9,5.3c0,0,0.1,0,0.1,0c1.3,0.1,1.8,0.7,1.7,2.1c-0.2,2.7-0.5,5.5-0.9,8.2
		c-0.2,1.5-0.9,2.9-1.3,4.4c-0.3,0-0.2,0-0.5,0c-0.3-2.3-0.7-4.5-0.9-6.8c-0.1-1.5-0.6-2.6-1.9-3.5c-1.8-1.3-3.7-2.5-4.6-4.8
		c-0.6-1.5-1.7-1.7-3.3-1.9c2.4,1.1,2.4,1.1,2.2,3.7c-0.1,0.7-0.2,1.5,0.8,1.6c-0.2-0.9-0.3-1.8-0.5-2.7l0.5-0.1
		c0.5,1,1.1,2.1,1.6,3.1c-0.3-0.1-0.6-0.2-0.9-0.3c0.3,0.3,0.5,0.6,0.8,0.9c1,1,1.4,2.4,0.9,4c-1.3-2.1-3.3-2.3-5.2-3
		c-2.3-0.8-3.8,1-5.9,1.6c-0.1-0.6-0.2-1.1-0.4-1.6c-0.2-0.4-0.4-1-0.7-1.3c-0.1,0.1-0.1,0.2-0.2,0.3c0.5,0.4,0.6,1.1,0.3,2.7
		c-0.5-0.4-0.9-0.7-1.4-1c-0.1,0.2-0.2,0.4-0.3,0.6c0.2,0.1,0.4,0.3,0.6,0.4c1.2,0.9,2.2,1.1,3.5,0.2c0.7-0.5,1.5-1.2,2.3-1.4
		c2.9-0.6,6.1,1.2,7.4,4.3c0.7,1.7,1.7,2.9,3.1,4c0.5,0.3,0.8,1,1,1.7c0.3,0.9,0.5,1.8,0.7,2.8c0.5,2.3,1.5,3,3.7,2.6
		c0.5-0.1,1.4-0.1,1.5,0.2c0.2,0.5,0.2,1.3-0.1,1.8c-0.9,1.7-1.6,3.6-1.4,5.6c0.1,1.8-0.8,2.6-2.2,3.1c-0.4,0.2-0.9,0.4-1.3,0.5
		c-1.9,0.5-1.9,0.5-2.5-1.5c-0.2-0.7-0.3-1.4-0.6-2c-0.7-1.9-0.6-4.3-2.6-5.6c-0.2-0.1-0.3-0.6-0.3-1c-0.1-1.5-0.8-2.6-1.9-3.3
		c-0.9-0.6-1.2-1.4-1.3-2.5c0-0.6-0.2-1.2-0.4-1.9c-0.1,0-0.2,0.1-0.3,0.1c0.2,2,0.3,4,2.3,5.2c1,0.6,1.1,1.9,0.9,3.3
		c-2.2-0.4-4.3-1.1-6.2-2.2c-1.4-0.8-2.4-1.9-2.6-3.6c-0.2-1.1,0.1-2.4-0.4-3.2c-0.8-1.3-0.4-2.4-0.2-3.6c0.1-0.3,0.1-0.7,0.1-1
		c-0.1,0-0.2,0-0.3-0.1c-0.6,2.8-1.2,5.6-1.8,8.5c-1.4-0.6-2-1.8-2.1-3.5c0-1,0-2.3-0.6-2.8c-0.3-0.2-0.5-0.5-0.7-0.7
		c-0.1,0.2-0.1,0.3-0.2,0.5c0.1,0.1,0.2,0.2,0.3,0.3c1,0.8,0.8,2,0.6,3.2c-0.9,0-1.6-0.4-2.3-0.9c0,0.2-0.1,0.4-0.2,0.6
		c1.6,1,3.2,2.2,4.5,3.8c0.8,1,0.8,1.7,0.2,2.4c-0.5,0.6-1.2,1-1.9,1.5c-0.9,0.6-1.8,1.2-2.7,1.8c-0.8,0.6-1.6,0.9-2.4,0.3
		c-0.4-0.2-0.7-0.4-1-0.7c0,0.3,0,0.6-0.1,0.9c0.2,0.1,0.3,0.2,0.5,0.3c1.2,0.8,1.1,1.4-0.2,2.1c-0.3,0.2-0.6,0.3-0.9,0.5
		c0,0.2,0,0.4-0.1,0.6c0.2-0.1,0.4-0.2,0.6-0.3c2.7-1.2,5-0.4,6.9,2.4c-0.9,0-1.8-0.1-2.7-0.1c2.4,0.2,4.5,1.2,6.2,3.1
		c0.3,0.3,0.3,0.8,0.5,1.3c0.3,0,0.8-0.2,1,0c1.2,0.9,2.3,1.9,3.3,3c0.1,0.1-0.7,1.7-1.2,1.8c-1.8,0.3-3.7,0.4-5.3-1
		c-0.3-0.2-0.4-0.8-0.5-1.2c-1-0.2-1.9-0.3-2.8-0.5c0.4-2.6,2.1-1.9,3.6-1.9c-2.4-0.9-2.4-0.8-3.8,0.9c-0.3,0.3-0.6,0.5-1,0.6
		c-1.5,0.3-3,0.4-4.5,0.6c0.2,0.8,0.2,1.5,0,2.3c0.3,0,0.5,0,0.8,0c0,0,0,0,0,0c0.9,0.2,1.8,0.6,2.7,0.7c1.2,0.1,2.2,0.2,2.8,1.7
		c0.4,1.1,1.5,1,2.3,0.6c1.5-0.8,2.8-0.2,4.3,0.8c1.1,0.7,2.3,1.1,3.4,1.6c0.4,0.1,0.7,0.4,1.2,0.8c-1,1.1-1.9,2.1-2.9,2.9
		c-0.3,0.3-1.1,0.2-1.5-0.1c-1.8-1.1-3.5-2.3-5.3-3.5c-0.2-0.1-0.5-0.5-0.6-0.7c-1-1.6-2.6-1.7-4.2-1.6c1.5,0.1,3,0.3,3.7,2.4
		c-2,0.1-4-0.6-5.9,0.3c0,0.1,0.1,0.1,0.1,0.2c2-0.6,4.1-0.1,6.1,0.3c0.9,0.2,1.5,0.5,0.9,1.8c0.8-1.2,1.5-1,2.3-0.3
		c0.6,0.6,1.4,1.1,2,1.7c0.7,0.6,0.5,1.1-0.3,1.4c-0.1,0-0.3,0.1-0.4,0.1c-3.1-0.6-5.2,1.7-6.7,3.8c-0.4,0.6-0.9,0.9-1.3,1.2
		c0.4,0.7,0.7,1.4,0.9,2.2c0,0.1,0,0.2,0.1,0.4c1.2-0.4,2.4-1,3.5-1.8c0.3-0.2,0.6-0.3,1-0.4v1.1c0.5-2.5,3.2-2.4,5.1-3.5
		c-0.2,0.9-0.4,1.8-0.6,2.6l0.2,0.1c0.2-0.6,0.5-1.2,0.6-1.8c0.2-1.6,1-2.2,2.7-2c0.2-0.2,0.3-0.5,0.5-0.5c2-0.3,3.9-0.5,6.3-0.8
		c-0.4,0.9-0.6,1.4-0.9,1.9c0,0,0.1,0.1,0.1,0.1c-0.3,0.4-0.5,1.2-0.8,1.2c-0.6,0.1-1.4-0.1-2-0.4c-1.1-0.4-2.2-1-3.3-1.5
		c1.6,0.8,3.1,2.2,4.7,2.4c3,0.4,4.3,2.4,5.3,5c0.5,1.4,0.7,2.9,1,4.7c-0.8-0.7-1.4-1.2-2-1.6c-0.1,0.1-0.2,0.2-0.2,0.3
		c0.6,0.5,1.2,1.1,1.9,1.4c1.3,0.7,2.7,1.3,4.1,2c2.6,1.3,2.7,2.2,0.5,4.1c0.3,0.8-0.5,2.7-1.2,2.7c-1.4-0.1-2.8-0.3-4.2-0.5
		c1.3,0.4,2.6,0.8,3.9,1.3c-1.7,0.1-3.5,0.4-5-1l-0.5-0.1c0.4,1.3,1.5,1.4,2.4,1.6c0.7,0.1,1.3,0.2,2.1,0.3
		c-1.1,1.5-2.2,1.6-3.3,0.7c-0.6-0.5-1.4-0.8-2.2-1c0.8,0.5,1.6,1,2.6,1.7c-0.7,0.3-1.1,0.4-1.4,0.5c-0.7,0.2-1.5,0.4-2.2,0.6
		c-0.8,0.3-1.8,0.1-2.4-0.5c-1.5-1.6-3-3.2-4.7-4.5c-0.9-0.7-2.1-1.1-3.3-1.3c-0.6-0.1-1.3-0.1-1.9-0.2l9.2,8.4c0.1,0,0.1,0,0.2,0.1
		c0,0,0.1,0,0.1,0.1c0-0.1,0-0.1,0-0.2c1.4-0.5,2.7-1,4.1-1.3c0.4-0.1,1,0.3,1.4,0.7c2.1,2.2,3.1,2.7,5.1,2.2c1-0.7,2.1-1.1,3.4-1.2
		c-0.6-0.1-1.4-0.1-1.9,0.2c-3.3,1.5-4.4,1.2-6.9-2.3c2.1-0.3,3.9-1.5,6-0.6c0.6,0.3,1.6-0.2,2.3-0.5c1.4-0.6,2.7-0.3,3.4,1
		c0.4,0.8,0.4,1.6-0.3,2.3c0,0-0.1,0-0.1,0.1c0.3,0.1,0.6,0.2,0.9,0.3c1.5-1.9,3.6-2.6,5.8-3.7c-0.1,1.1-0.3,2-0.3,2.9
		c-0.1,2.1-0.3,4.2-0.2,6.3l-1.3-0.3c0.2,1,0.2,2.1-0.1,3.1c0,0.1-0.2,0.5-0.3,0.9c0,0.1,0,0.2,0,0.4c0,0.2,0,0.3,0,0.5c0,0,0,0,0,0
		c0,0,0,0,0,0.1c0,0,0,0,0,0.1c0,0,0,0.1,0.1,0.1c0.4,0.7,0.6,1.4,0.8,2.1c0.1,0,0.1,0.1,0.2,0.1c1.2,0.8,1.8,2.1,2,3.7
		c0.9,7.9,2.6,15.7,4.6,23.4c0.8,3,1.8,6.1,2.1,9.2c0.5,6.1,0.6,12.2,0.7,18.3c0.1,3.8,0,7.5-0.2,11.3c-0.1,1.7-0.5,3.3-0.7,5
		c-0.1,0.4,0,0.9,0,1.3c-0.1,2.9-1.2,4.9-1.6,7.4c-0.3,1.5,1.5,2,0.6,2.1c-0.1,2.7-0.3,5.4,0,8.1c0,0.1,0,0.2,0,0.3
		c0.5,0.9,0.6,2,0.6,3.1c-0.3,10.5-0.6,21-1,31.5c-0.2,4.5-1.9,8.9-3.4,13.1c-1.7,4.8-6.9,7-11.2,9c-0.8,0.4-3.7,2.6-5.2,3.5
		c-0.2,0.1,1.9,0.4,2.1,0.4c2.4-0.3,7-2.5,8.6-2.4c0.5,0,1.1,0.2,1.4,0.5c0.1,0.1-0.4,1.6-0.4,1.6c0.4,0.5,0.4,0.5,0.9,0.9l2.7-2.6
		c1.8-0.9,4.3-0.6,6-0.8c1.9-0.2,1.3,3.2,2.2,5.3c0.1,0.2,1.2,0.4,1.3,0.7c0.7-0.7,4.3-5.8,7.6-5.2c3.1,0.6,8.4,4.3,10.2,7.1l0.8-1
		c0-2.1-0.1-1.1,0-2.1c0.3-2.8,1.3-1.3,2.5-1.2c3.2,0.4,1.2,1,4.8,1.2c3.3,0.2,5.3,2,6.4,2.6c0.7-0.1,0.9-0.6,0.4-1.4
		c-2.2-2.7-9.2-7.7-10.1-8.5c-4-3.7-5.8-5.9-7.5-12.3c-0.9-3.3-3.1-7.9-3.3-11.4c-0.5-8.6-2.2-17.2-1.1-25.7
		c0.5-3.9-0.1-7.9,2.1-11.3c1.2-1.9,2.7-3,4.9-3.2c4.8-0.3,9.6-0.7,14.5-1.2c3.2-0.3,6.4-1,9.5-1.3c3.2-0.3,3.8,0.2,5.1,3.3
		c0.7,1.7,1.8,2.6,3.4,2.5c4.7-0.5,9.1,1,13.6,1.6c1.9,0.3,2.9,1.4,3.5,3.2c1,3,0.8,3.5,4.4,2.7c0.1,0,0.1-0.1,0.1-0.1
		c-0.9-0.5-2.2,0.7-3.2-0.8c2.2-0.4,4.3-0.8,6.3-1.1c-1.4-0.1-2.8,0-4.1,0.4c-2.3,0.6-3.6-0.5-3.3-3.1h4.7c-2.1-0.8-4.3,0.1-6.1-1.2
		c0-0.2,0-0.2,0.1-0.4c2-0.2,4-0.3,6-0.5c0-0.1,0-0.2,0-0.3H230c0.4-1.2,2.3-0.9,1.6-2.6c-0.8,2.7-3.6,3.3-6.1,1.1
		c0.6-0.7,1.1-1.4,1.7-2.1c-0.6,0.2-1.1,0.6-1.6,1c-0.6,0.4-1.1,1.1-1.7,1.1c-2.2,0-4.5,0.1-6.6-0.5c-1-0.3-1.7-1.9-2.5-2.9
		c0.7-0.5,1.4-1.3,2.2-1.5c3.1-0.7,6.3-1.3,9.5-1.9c0.3-0.1,0.6,0.1,0.9,0.2c3,0.7,5.4,2.3,7.5,4.7c0.6,0.8,1.3,0.9,2.2,0.9
		c1.1-0.1,2.5-0.2,3.4,0.4c1.8,1.2,4.2,1.4,5.5,3.5c0.6,1,1.2,1.9,1.7,3c0.3,0.7,0.3,1.5,0.4,2.2c0,0,0.1,0,0.1,0
		c-0.1-1.5-0.2-2.9-0.3-4.5c1,0.1,2.3-0.1,2.7,1.3c0.3,1,0.7,1.3,1.4,1.3c-0.3-0.4-0.7-0.9-1-1.4c0.4-0.3,0.9-0.7,1.3-0.9
		c0.6-0.3,1.3-0.5,2-0.7c-3.2,1.1-5.9,0.2-9-1.6c1-0.7,1.7-1.1,2.3-1.7c1.1-1.2,1.9-1.3,3,0.1c1,1.4,2.4,0.8,3-1
		c0.1-0.4,0.7-0.8,1.1-0.9c0.4-0.2,0.9,0,1.3,0c0-0.1,0-0.1,0-0.2h-2.7l0.3,0.4c-0.4,0.6-0.8,1.3-1.4,1.7c-0.3,0.2-1-0.1-1.4-0.5
		c-1.7-1.5-1.6-1.5-3.4-0.2c-0.5,0.4-1,0.8-1.6,1.2c-0.3,0.2-0.7,0.5-0.9,0.4c-1.3-0.7-2.5-1.4-3.9-2.2c3.2-3.6,7-1.4,10.5-2.2
		c-1.5-0.2-2.9-0.3-4.2-0.6c-2-0.4-3.8-0.1-5.6,1c-1,0.6-2.3,0.7-3.4,0.8c-2.1,0.1-3.5-1.1-4.3-3.5c0.4-0.1,0.8-0.3,1.1-0.4
		c2.9-0.5,5.8-1.2,8.8-1.5c1.8-0.2,3.1-0.9,4.1-2.5c0.9-1.4,2.2-2.1,3.8-2.1c3.1-0.1,6.1-0.3,9.2-0.4c0-0.1,0-0.1,0-0.2h-11.8
		c1.1-1.1,1.8-1.8,2.6-2.6c2.3,1.8,5,1.7,7.7,2c2.3,0.2,4.7,0.4,6.8,1.2c3,1,5.9,1.1,9,0.6c0.6-0.1,1.3-0.1,1.9-0.1
		c1.6-0.1,2.6-0.9,3.2-2.8c0.5-1.8,1.6-2.2,3.1-1.2c0.6,0.4,1.1,0.8,1.6,1.3c0.1-0.7,0.4-1.4,0.9-2c-0.7-0.6-1.3-1.3-2-1.9
		c0.9-0.4,1.8-0.8,2.9-0.8c0.1-0.6,0.4-1.2,0.8-1.6c-0.7,0.2-1.3,0.4-2,0.6C284.3,206,282.8,205.6,281.9,207.1z M138.8,62.9
		c-1.6-1.1-2.5-2.5-2.7-4.5c-0.1-1.9-0.1-3.9-1.5-5.3c2.6,1,4.1,3.1,4.2,6C138.8,60.3,138.8,61.5,138.8,62.9z M119.7,90.4
		c-0.4-0.6-0.8-1.2-1-1.6c-1.7,0.8-3.3,0.3-4.8,0c1.9-1.1,4-1.2,6-0.8c0.7,0.2,1.3,1.5,1.9,2.3C120.8,91.4,120.3,91.3,119.7,90.4z
		 M118,104.8c-0.1-0.2-0.2-0.3-0.3-0.5c1.6-1.2,3.1-2.5,4.7-3.7c0.1,0.2,0.2,0.3,0.3,0.5C121.9,103.4,119.5,103.4,118,104.8z
		 M209.8,194.9c-0.2,0.1-0.5,0.1-1.1,0.3c0.9-0.9,1.5-1.5,2.1-2.1c-2.1,1.2-3.7,3.6-6.6,3.4c0.5-1.4,0.9-2.8,1.6-4.1
		c0.6-1.1,0.9-1.9,0.2-3c-0.1-0.2-0.1-0.5,0-1c0.3,0.4,0.7,0.7,0.9,1.2c0.4,1.1,1.2,1.6,2.2,1.4c1.4-0.2,2.7-0.6,4.1-0.9
		c1.2-0.3,2.4-0.7,3.3-0.9c-0.8-0.4-1.9-0.8-3.2,0c-0.9,0.6-2,1-3,1.2c-1.3,0.3-2.6,0-3.2-1.7c-0.1-0.3-0.3-0.7-0.5-0.7
		c-1.9-0.1-1.5-1.7-1.8-3c-0.1,0.7-0.3,1.4-0.4,2.4c-0.9-0.4-2-0.7-3-1.3c-0.3-0.2-0.4-1-0.4-1.4c0.3-2.6,2.1-4.5,4.6-4.9
		c1.8-0.3,3.5-0.5,5-1.9c1.1-1,2.6-0.8,3.8,0c0.8,0.5,1.4,1.2,2.2,1.9c1.1,1,2.1,2,3.2,2.8c1.2,0.9,1.8,1.9,1.7,3.5
		c-0.2,1.9,0.1,2.2,1.8,1.5c0.3-0.1,0.7-0.3,1-0.6c-0.7,0.1-1.4,0.2-2.3,0.4c0-0.9,0-1.6,0-2.3c0-0.7-0.1-1.5-0.1-2.4
		c0.6,0.1,1.2,0.2,1.9,0.2c1.9,0,3.9,0.1,5.8-0.2c2.4-0.5,3.8,0.7,5.2,2.6c-0.5,0.1-0.8,0.2-1.2,0.3c-4.3,0.3-8.3,2-12.2,4
		C217.6,191.7,213.7,193.2,209.8,194.9z M199.6,196c0.1,0.7,0.1,1.4,0.2,2.1c-0.1,0.1-0.2,0.2-0.3,0.2c-1.6-1.8-3.2-3.5-5.9-2.1
		c3.1-0.4,3.7-0.1,5.2,2.4c-3.2,1.1-6.4,2.2-9.8,3.4c-0.1-2.7-0.4-5.2-0.4-7.8c0-1,0.8-2,1.3-3c0.2-0.5,0.8-0.7,1.1-1.2
		c1.8-2.4,3.9-3.7,6.9-3.3c0.1,0,0.3,0,0.4,0c2.2-0.3,2.4-0.2,1.6,2.1C199.1,191.2,199.1,193.6,199.6,196z M198.8,185.6
		c-6.5,0.1-9.9,3.9-11.5,10.2c-2-1.8-2.4-4.6-0.8-6.6c1.1-1.3,1.2-2.3-0.1-3.6c2-0.9,3.8-1.6,5.6-2.5c1.7-0.8,3.1-0.7,4.6,0.5
		C197.3,184.2,198,184.8,198.8,185.6z M198.1,181.6c1.3-0.3,2.2-0.5,3.3-0.7c-0.5,1.4-0.9,2.5-1.3,3.6c-0.2,0-0.3,0.1-0.5,0.1
		C199.1,183.7,198.7,182.8,198.1,181.6z M200.9,187.5c1.2,0.3,2.3,0.5,3.3,0.7c1,0.2,1.7,1.8,1.2,3c-0.7,1.8-1.3,3.7-2.3,5.3
		c-0.4,0.7-1.4,1-2.1,1.5C199.8,193.9,199.8,192.4,200.9,187.5z M181.4,128.5c1-2.9,1.8-3.7,4.6-3.4c2.2,0.3,4.5,0.7,6.6,1.5
		c1.1,0.4,2.1,1.5,3,2.4c0.6,0.6,0.3,6.2-0.5,6.9c-2.4,2.2-4.8,1.5-7.4,3.3c-2.1,1.4-4.6,2.2-6.9,3.3c-0.1-0.2-0.3-0.3-0.4-0.5
		C181.5,137.5,179.9,132.9,181.4,128.5z M201.9,136.1c0.4-0.2,0.8-0.6,1.2-0.8c1.4-0.7,2.2-0.4,2.8,1.1c0.9,2.2,0.9,2.4-0.8,4
		c-1.5,1.4-3.1,2.6-5.4,2c-1-0.3-2.1,0.1-3.2,0.2c-1.2,0.1-2.4,0.1-3.6-1.3c1.2-0.7,2.1-1.2,3-1.7
		C197.9,138.5,199.9,137.3,201.9,136.1z M181.2,149.9c2.8-1.9,5.6-3.7,8.4-5.5c0.4-0.3,1.1-0.4,1.6-0.2c2.3,0.9,4.6,0.7,6.8-0.2
		c0.8-0.3,1.6-0.3,2.6-0.1c-0.8,0.5-1.6,1.1-2.5,1.5c-3,1.4-5.9,2.8-8.9,4.1c-1.6,0.7-3.3,0.9-5,1.5c-0.6,0.2-1.3,0.8-1.6,1.4
		c-1,1.7-1.9,3.4-3,5.5c0.1-2.1,0.3-3.7,0.3-5.4C179.9,151.3,180.3,150.5,181.2,149.9z M195.9,150.6c1.4,0,1.5,1.4,1.5,2.8
		c-0.1,2.9-2.7,3.6-3.4,6.3c-2-2.5-2.4-5.3-3.9-8.2C192.3,151.1,194.1,150.6,195.9,150.6z M197.5,158.2c0.7-0.6,1.4-1.1,2.2-1.6
		c0.7-0.4,1.6-1.1,2-0.9c1.2,0.7,2.4,1.6,2.6,3.3c0.1,0.9,0.2,1.9,0.3,2.8c0.1,0.6,0.4,1.2,0.7,1.8c-0.3-1.9-0.5-3.7-0.9-5.9
		c0.9,0.4,1.3,0.7,1.8,0.8c2.7,0.6,2.9,0.8,3.1,3.8c0.1,1.3,0.2,2.7,0.3,3.8c0.1-1,0.3-2.2,0.5-3.4c-0.4-1.2-0.7-2.5-1.1-3.7
		c0.1-0.1,0.3-0.2,0.4-0.2c2.1,1.5,4.5,2.7,5.5,5.6c0,0,0,0,0,0c-0.4,0.5-0.7,1.1-1.1,1.6c-0.2,0.4-0.3,0.9-0.6,1.2
		c-1.3,1.6-4.6,2.2-6.3,1.2c-3.1-1.8-6.2-3.7-9.2-5.6C195.9,161.7,195.7,159.7,197.5,158.2z M231.2,159.7c-0.8-0.6-1.6-1.1-2.3-1.8
		c-0.6-0.5-1.1-1.1-1.5-1.7c-2-2.8-4.8-1.4-7.2-1.7c-1-0.1-1.9-0.2-3.3-0.4c1.2-1.7,2.2-3.1,3.3-4.3c0.3-0.4,1.5-0.3,2,0.1
		c1.7,1.2,3.8,1.9,4.9,4.1c0.1,0.2,0.3,0.4,0.4,0.6c0,0.1,0.2,0,0.4,0.1c-0.6-1.4-1.2-2.7-2.6-3.4c-0.9-0.5-1.7-1.3-2.6-2.1
		c3-1.5,3-1.5,6.9,2.6c-0.8-1.2-1.6-2.3-2.3-3.4c1-0.6,1.9-1.3,2.9-1.9c1.4,2.3,3.6,4.1,4.7,6.8l-0.4,0.6c-1.6-1-3.2-2-4.8-2.9
		c1,1.6,2.6,2.3,4.2,3c1.3,0.5,1.7,1.6,2,2.8c0.5,2.1,0.9,4.2,1.5,6.2c0.3,1.1,0.2,1.8-0.7,2.4c-1.7,1.1-3.4,2.2-5.2,3.2
		c-2.5,1.4-5.1,2.7-7.6,4c-2.3,1.2-4.8,1.2-7.2,0.9c-0.8-0.1-1.7-0.2-2.5-0.5c-0.5-0.2-0.9-0.7-1.4-1.1c0.6-0.6,1.2-1.4,1.9-1.9
		c0.4-0.2,1.1,0.1,1.6,0.4c1,0.7,1.6,0.2,2.2-0.6c0.4-0.7,0.9-1.4,1.3-2.1c0.5-0.8,1.3-1,1.9-0.3c2.4,2.8,4.6,0.8,6.9-0.4
		c-0.6,0.2-1.3,0.5-1.9,0.8c-1.5,0.7-2.9,0.4-4.2-0.6c-2-1.6-2-1.6-3.6,0.4c-0.1,0.1-0.3,0.2-0.4,0.4c-0.3-1.5,1-3.1,2.2-2.7
		c1.1,0.3,2.1,0.8,3.1-0.2c0.1-0.1,0.5,0.1,0.7-0.2h-5.8c0-1.4,0.7-2,1.9-2c1.4,0,2.7-0.1,4.1-0.5c-1.7,0-3.4-0.1-5.1,0
		c-0.9,0.1-1.4,0.8-1.6,1.8c-0.1,0.9-0.4,1.7-0.6,2.5c-0.1,0.5,0,1.1,0,1.7c-1.1,0.4-1.1,0.4-0.5-3.6c-0.3,0.5-0.7,1-1,1.5
		c-0.1,0-0.2,0-0.4-0.1c0-0.4-0.1-0.9,0.1-1.3c0.3-0.7,0.6-1.3,1-2c0.6-0.9,0.7-1.6,0-2.6c-0.4-0.5-0.3-1.4-0.6-2.2
		c0,0.8-0.2,1.7,0,2.4c0.4,1.5,0,2.6-1.3,3.5c-0.1-1.6-0.7-2.8-2-3.7c-0.8-0.5-1.4-1.3-2.2-1.8c-0.8-0.4-1.7-0.6-2.6-0.9
		c-0.7-0.2-1.4-0.4-2-0.6c0.4-0.6,0.8-1.3,1.3-1.7c1.4-1.2,2.7-1.1,3.6,0c0.3-0.2,0.5-0.6,0.8-0.6c2.5,0.1,5,0.2,7.5,0.3
		c1.4,0,2.7-0.1,4.1-0.1c0.3,0,0.6-0.2,0.8,0c1.3,1,2.7,1.9,3.9,3.1c1,1,1.8,2.2,3.2,2.4c0.5,0.1,1,0.6,1.7,0.6
		C232.5,160.7,231.8,160.2,231.2,159.7z M232.6,149l0.2-0.4c1.8,1.1,3.6,2.3,5.7,1l0.1,0.6c-0.4,0.4-0.6,0.9-1.1,1.1
		c-0.8,0.4-1.7,0.7-2.8,1.2C234.3,151.5,233.5,150.3,232.6,149z M213.7,167.6l1.5-1.6c0.1,0.1,0.3,0.1,0.4,0.2
		c-0.2,0.6-0.2,1.2-0.5,1.7c-0.2,0.3-0.8,0.2-1.2,0.2C213.9,168,213.8,167.8,213.7,167.6z M211.8,153.8c0-0.2,0-0.3-0.1-0.5
		c1.6-0.2,3.2-0.4,4.8-0.7c0,0.2,0,0.5,0.1,0.7C215,153.5,213.4,153.7,211.8,153.8z M205.4,152.8c1.2-1.1,2.3-2.2,3.5-3.3
		c0.1-0.1,0.3-0.2,0.4-0.1c1.2,1.1,2.5,0.6,3.8,0.5c0.2,0,0.5,0.4,0.7,0.6c-0.6,0.2-1.3,0.3-1.6,0.7
		C210.3,153.9,208,153.5,205.4,152.8z M203.4,152.4c0-0.1-0.1-0.2-0.1-0.3c1.3-0.7,2.6-1.4,3.9-2c0.1,0.1,0.1,0.2,0.2,0.4
		C206.1,151.1,204.8,151.7,203.4,152.4z M207.2,154.6c-2,2.3-2.6,2.4-4.4,0H207.2z M198.2,166.6c3.3,0.8,6.1,2.5,8.8,4.7
		c0.1,0.1,0.1,0.3,0.2,0.4c-2.3,1.7-4.4,0.2-6.6-0.4c-2.2-0.6-2.8-2.6-3.6-4.8C197.5,166.5,197.9,166.5,198.2,166.6z M205.7,173.3
		c0.6-0.7,1-1.2,1.5-1.6c1.8-0.6,3.6-1.1,5.6-1.8c-1.7,4.3-5.2,4.6-8.5,5.6C204.1,173.6,204.5,173.2,205.7,173.3z M233.3,181.2
		c-0.4,0-0.8-0.3-1.2-0.5c0.2-0.4,0.3-0.8,0.5-1.2c1.6-2.2,2.3-2.4,4.6-1.1c0.4,0.2,0.8,0.4,1.1,0.6c2.7,1.7,5.5,2.2,8.4,0.8
		c-0.9,1.6-1.9,2.4-3.9,2.1C239.7,181.4,236.5,181.4,233.3,181.2z M242.6,183.6c0,0.2,0,0.3,0,0.5c-1.7,0.4-3.3,0.8-5,1
		c-0.3,0.1-0.8-0.5-1.1-0.8c0.3-0.3,0.7-0.9,1-0.9C239.2,183.4,240.9,183.5,242.6,183.6z M239.8,189.2c-0.8,0.1-1.5,0.2-2.3,0.4
		c-2.2,0.6-4.3,1.4-6.5,2c-2,0.6-4.1,1.2-6.1,1.7c-0.4,0.1-0.9-0.1-1.4-0.2l-0.1-0.4c0.5-0.3,1-0.7,1.5-0.9c4-1.2,7.9-2.5,11.9-3.6
		c0.9-0.2,2,0.3,3,0.5C239.8,188.9,239.8,189.1,239.8,189.2z M262.7,185.7c-1.2,0.2-2.3,0.4-3.4,0.6c-0.6-1.4-1.1-2.7-1.6-4
		C260,182.3,261,184.4,262.7,185.7z M254.8,181.6c1.8,1,3.3,2.2,3.6,4.7c-1.3,0-2.5,0.1-3.7,0c-2-0.3-3.7,0.3-5.5,1.2
		c-1.2,0.6-2.6,1.2-4,1.2c-1.5,0.1-3-0.5-4.5-0.7c0-0.2,0-0.4,0.1-0.6c1.7-0.2,3.3-0.4,5-0.4c1.5,0,2.4-0.6,2.8-2.3
		c0.1-0.4,0.6-0.8,1-1.1c0.4-0.4,1-0.6,1.4-0.9C252.3,181.8,253.4,180.8,254.8,181.6z M256.1,175.9c-1.6,0.8-3.3,1.3-4.9,2
		c-1.4,0.6-2.9,1.2-4.3,1.8c1.3-2.1,2.6-4.1,3.7-6.3c0.7-1.3,1.3-1.9,2.8-1.7c1.8,0.3,3.7,0.1,5.6,0.1
		C258.7,173.9,257.6,175.2,256.1,175.9z M259.8,170.5c-0.2,0.3-0.7,0.5-1,0.5c-1.7-0.2-3.4-0.4-5-0.9c-2.1-0.7-2.9-0.5-4,1.6
		c-0.8,1.6-1.5,3.2-2.3,4.8c-1.5,2.8-4.3,3.5-6.8,1.8c-1.4-0.9-2.8-1.9-4.1-2.9c-1.2-1-2.3-0.8-3.3,0.2c-0.5,0.5-0.9,1-1.3,1.6
		c-0.9,1.2-1.6,2.6-3.2,2.9c-2.7,0.5-5.4,1.2-8.1,0c-1.7-0.8-1.7-2-0.2-3.1c0.7-0.5,1.5-0.8,2.2-1.2c3.7-2,7.4-4.1,11.2-6.1
		c0.6-0.3,1.1-0.7,1.7-1.1c2.4-1.6,4.9-2.1,7.5-0.8c2.2,1.1,4.5,0.8,6.8,0.4c3.7-0.6,7.5-0.8,11.2-1.2c0.1,0.2,0.1,0.4,0.2,0.5
		C260.8,168.6,260.4,169.6,259.8,170.5z M271.1,155.2c0.1,0,0.2,0.1,0.3,0.1c-0.2,0.6-0.2,1.3-0.5,1.8c-0.8,1.4-1.6,2.8-2.4,4.1
		c-0.8,1.3-1.5,2.5-2.3,3.8c-0.1-0.1-0.3-0.2-0.4-0.3C267.5,161.6,269.3,158.4,271.1,155.2z M266.8,145.4
		C266.8,145.4,266.8,145.4,266.8,145.4c1.8-0.2,2.7,0.4,3.2,2.2c0.3,1.1,0.5,2.1,0.6,3.2c0.1,0.9-0.2,1.8-1.1,1.8
		c-2.5-0.1-5.1-0.3-7.6-0.5c-0.1,0-0.2-0.2-0.5-0.3C264.3,148.6,264.9,147,266.8,145.4z M227.5,141.6c2.7,1.6,5.3,3.4,8,4.8
		c3.7,1.9,7.4,6.9,11.3,8.2c4.8,1.7,9.8-0.6,15-1.5c2.5-0.4,5.2-0.1,7.8-0.1c0.1,0.1,0.2,0.3,0.3,0.4c-1.2,2.2-2.3,4.5-3.5,6.7
		c-0.5,1-1.4,1.8-1.9,2.8c-1.4,2.8-3.9,2.7-6.2,2.7c-1.1,0-1-1-0.6-1.7c1.2-2.1,2.5-3.9,5.1-3.9c1.6,0,3-0.5,3.6-2.4
		c-1.1,2.1-3.2,1.8-4.9,2.1c-0.2,0-0.8-0.7-0.8-1.1c0-0.7,0.3-1.3,0.2-2.1c-0.3,0.7-0.7,1.3-0.8,2c-0.3,2-0.4,2.2-2.3,3.4
		c-0.1-1.3-0.2-2.5-0.2-3.8c-0.1,0-0.1,0-0.2,0c0,1.3,0.1,2.7,0,4c-0.1,2.2-0.9,3-2.9,3.4c-1.3,0.3-2.5,0.6-3.8,1
		c-2.4,0.7-4.7,0.5-7-0.3c-0.5-0.2-1-0.8-1.4-1.2c0.4-0.5,0.8-1.3,1.3-1.6c1-0.5,2-0.9,3.1-0.8c1.5,0,2.5-0.6,3.2-2
		c0.3-0.5,0.6-1,0.7-1.7c-0.4,0.6-0.9,1.1-1.3,1.7c-0.5,0.8-1.1,1.8-2.1,1.2c-0.9-0.6-0.6-1.8-0.2-2.7c0.2-0.4,0.4-0.9,0.6-1.3
		c-0.1-0.1-0.3-0.1-0.4-0.2c-0.4,1.1-0.7,2.3-1.1,3.4c-0.2,0.5-0.5,1-0.9,1.2c-1.2,0.7-2.4,1.3-3.6,1.8c-0.5,0.2-1.2,0.2-1.6,0
		c-2.4-1.4-2.6-4.1-3.1-6.6c-0.2-0.8-0.3-1.6-0.6-2.3c-0.4-1-0.4-1.8,0.2-2.7c0.6-0.9,1.3-0.6,2.1-0.3c0.9,0.2,1.9,1,2.5-0.3h-2.4
		c0.3-0.9,0.4-1.5,0.7-2.3c-5.9,0.5-9-3.6-12-8C227.2,141.6,227.4,141.5,227.5,141.6z M229.6,146.1c-0.5,0.5-0.9,1-1.3,1.3
		c-1.1,0.8-1.8,0.5-2.5-0.7c-1-2-2-4.1-2.9-6.3C225.4,141.7,227.5,143.7,229.6,146.1z M220,138.9c0.8,0.5,1.6,1.2,2.1,2.1
		c1.3,2.1,2.4,4.4,3.6,6.6c-1.1,0.4-2.3,0.8-3.4,1.1c-0.2,0.1-0.5,0-0.7,0c-0.6-0.1-1.4-0.5-1.6-0.2c-0.9,0.8-1.8,1.8-2.3,2.9
		c-0.4,0.8-0.5,1.1-1.4,1c-1.3-0.1-2.6,0.1-4.1-0.1c0.6-0.6,1.2-1.2,1.8-1.9c1-0.1,2-0.3,2.8-0.4c-1.1-0.3-2.4-0.6-3.9-1
		c1.2-2.3,3.4-0.8,4.9-1.9c-1.4,0.1-2.6,0.2-4.3,0.3c0.5-0.5,0.8-0.7,1-0.9l-0.1-0.1c-0.2,0.1-0.3,0.1-0.5,0.2
		c-0.6,0.6-1.1,1.1-1.7,1.7c0.1,0-0.1,0-0.1,0c-0.2-0.7-0.4-1.4-0.6-2.1c0.6,0.1,1.3,0.2,1.9,0.3c0.2,0,0.4,0.1,0.5,0.1
		c-0.6-0.4-1.2-1-1.8-1.2c-1.7-0.4-2-0.7-1.8-2.7c1.9-1.2,2.6,0.4,3.6,1.9c-0.5-2.2-1.3-2.7-2.9-2.7c-0.4,0-0.9-0.4-1.2-0.8
		c-0.3-0.3-0.5-0.8-0.7-1.3c-0.1-0.3-0.2-0.6-0.4-1.2c1.3-0.2,2.4-0.5,3.6-0.6C214.8,137.9,217.5,137.4,220,138.9z M209.4,137.1
		c1.3,0.1,2.6,0.3,3.8,0.5c0,0-0.1,0.1-0.1,0.1c-1.5,0.2-3,0.4-4.6,0.6C208.3,137.4,208.5,137,209.4,137.1z M208.5,144
		c0.5,0.8,1,1.5,1.5,2.3c0.5,0.8,0.2,1.4-0.4,1.8c-2.3,1.2-4.7,2.3-7.1,3.4c-2.3,1.1-3.7,0.3-4.6-2.7c0.6,0,1.2,0.1,1.8,0.1
		c-0.2-0.2-0.4-0.5-0.8-0.9c0.7-0.2,1.3-0.3,1.8-0.4c0-0.1-0.1-0.3-0.1-0.4c-0.7,0.2-1.4,0.4-2.1,0.6c-0.7,0.2-1.4,0.4-2.2,0.3
		c1.1-1.9,3-2,4.6-3c1.5-1,3.2-1.8,4.8-2.6c-0.1-0.1-0.1-0.2-0.2-0.3c-0.4,0.1-0.8,0.3-1.3,0.4c0-0.1-0.1-0.1-0.1-0.2
		c0.7-0.6,1.5-1.2,2.3-1.9C207.1,141.6,207.8,142.8,208.5,144z M217.2,116.1c0.1,0.2,0.2,0.3,0.3,0.5c-1.7,1.2-3.3,2.5-5.1,3.8
		C211.5,116.8,212.8,115.8,217.2,116.1z M205.4,113c0.3,0.1,0.5,0.3,0.8,0.4c-0.4,0.8-0.7,1.5-1,2.2c0.6-0.5,1.2-1,2-1.6
		c0.5,0.3,1.3,0.9,2.2,1.4c0.8,0.4,1.7,0.7,2.9,1.2c-0.8,1.5-1.2,3.5-2.4,4.3c-2,1.4-4.1,0.8-5.5-1.5c0.4,1,0.8,2.1,1.2,3.1
		c-2.5,1-4.7-0.1-5.3-2.8c-0.3-1.1-0.5-2.2-0.7-3.3c-0.2,3.9,1,7.2,4.6,7.1c1,0,2-0.6,3-1c1.9-0.8,2.5-0.7,2.2,1.6
		c0,0.2,0,0.4,0,0.6c0.2,1.4,0.7,3-0.4,4c-2.6,2.4-5.6,2.2-8.5,3.8c-0.6,0.4-1.4,1.5-2.2,1.8c-0.2-1.1-1.6-3-0.4-3.4
		c-0.2-0.7-0.4-1.5-0.7-2.5c2.1,0.3,4,0.6,5.9,0.9c0-0.1,0-0.2,0.1-0.3c-1.2-0.3-2.4-0.6-3.6-0.8c-2.7-0.6-3.2-1.3-3.2-4.3
		c-0.1-1.7-0.2-3.5-0.3-5.2c0-0.2-0.2-0.4-0.3-0.9v9c-0.7-0.3-1.4-0.5-2-0.9c-2.5-1.6-5.2-2.7-8.1-2.8c-1,0-2-0.2-2.3-1.6
		c2.8-1.2,5.6-2.4,8.4-3.6c-0.1-0.2-0.1-0.3-0.2-0.5c-2.6,0.9-5.1,1.9-7.7,2.8c0.4-4,1.5-5,4.9-5.3c1.8-0.1,3.7-0.6,5.3-1.5
		C197.9,111.5,201.6,111.9,205.4,113z M196.3,88.1c0.2-0.1,0.4-0.2,0.6-0.3c3.6-2.2,6.9-1.3,10,1c2.1,1.6,4.5,2.2,7.1,2.4
		c0.5,0.1,1.2,0.4,1.4,0.8c0.2,0.3-0.1,1.1-0.3,1.5c-0.4,0.8-0.9,1.5-1.3,2.3c-0.6,1-1,2-2.5,1.9c-0.7,0-1.4,0.9-2.1,1.4
		c-0.6,0.5-1.2,1.2-1.3-0.4c0-0.4-0.5-0.7-0.8-1.1c-0.1,0-0.2-0.1-0.3-0.1c0.2,0.6,0.2,1.3,0.5,1.9c0.5,0.9,0.4,1.5-0.2,2.2
		c-1.5,1.6-3.1,3.1-5.2,3.6c-0.7,0.2-1.5,0.2-2.5,0.3c-0.1,0.4-0.3,1-0.6,1.6c-0.3,0.5-0.7,1-1,1.5c-0.2,0.2-0.5,0.5-0.5,0.6
		c0.3,1.4-0.7,1.6-1.5,1.8c-2.1,0.6-4.2,1.2-6.3,1.7c-0.5,0.1-1.1,0-1.7-0.1c-1.2-0.1-1.4-0.7-1.1-1.9c1-3.8,1.9-7.7,2.9-11.5
		c0.5-1.9,1.1-3.7,1.6-5.6C191.9,90.9,193.6,89,196.3,88.1z M193.2,62.4c2.2,1.6,4.4,3.2,6.5,4.8c0.9,0.7,1.3,1.3,0.5,2.4
		c-0.4,0.5-0.6,1.3-0.7,1.9c-0.4,3.2-2.2,5.8-3.4,8.7c-0.2,0.4-0.3,0.7-0.4,1.1c-0.2-0.1-0.4-0.2-0.6-0.4c-1-4.6-1.2-9.4-4.1-13.4
		C191.8,65.9,192.6,64,193.2,62.4z M182.2,89c1.6-4.2,3.4-8.2,4.9-12.4c0.6-1.7,0.6-3.6,1.1-5.4c0.3-1,1-1.8,1.5-2.7
		c1.9,1.4,2.4,3,2.7,4.9c0.4,2.4,0.9,4.8,1.2,7.3c0.1,0.8,0,1.8-0.3,2.6c-1.7,4-3.4,7.9-5.2,11.8c-0.3,0.6-0.6,1.2-1,1.6
		c-1,1.2-1.9,1.3-3,0.2c-1.2-1.1-3-2-3.3-3.3C180.5,92.3,181.6,90.5,182.2,89z M179.3,98.2c0.1-0.7,0.2-1.3,0.5-2.5
		c2.8,3.4,5.1,6.5,3.7,11.2c-0.8,2.6-1.3,5.3-2,8c-0.3,1-0.9,2-1.3,2.9c-0.1,0-0.3,0-0.4-0.1c-0.1-1.9-0.3-3.9-0.3-5.8
		c0-0.4,0.5-0.8,0.8-1.2c1.4-1.7,1.7-2.6,0.5-4.4C178.9,103.7,179,101,179.3,98.2z M179.2,161.8c0-0.2,0.1-0.5,0.3-0.7
		c1.6-1.9,3-4,4-6.5c0.5-1.4,4.7-2.9,6-2.3c0.5,0.2,1,0.8,1.2,1.3c0.5,1.1,0.8,2.3,1.3,3.5c0.4,1,1,2,1.6,3.1
		c-0.7,1.6-1.8,3.1-3.5,4c-3.1,1.8-6.1,3.6-9.2,5.3c-0.6,0.4-1.4,0.5-2.4,0.9C178.7,167.4,178.9,164.6,179.2,161.8z M177.9,181.4
		c0.1-1,0.1-2,0.3-3c0.1-0.5,0.3-1.2,0.7-1.5c4.1-3.5,8.3-6.9,12.5-10.3c0.5-0.4,1.2-0.8,1.9-1c1.5-0.5,2.8,0.2,3.3,1.8
		c0.7,2.3,2,3.9,4.3,4.5c0.8,0.2,1.9,0.1,2.2,1.4c0.3-0.2,0.7-0.3,1.2-0.5c-0.3,1.1-0.5,1.9-0.7,2.9c-0.4,0.1-1,0.3-1.7,0.5
		c0.1-0.5,0.2-0.8,0.3-1.2c-0.8,1.1-1.9,1.3-3.1,1.6c-3.9,0.9-7.7,1.9-11.5,2.9c0.2-0.3,0.5-1,0.7-1.6c-1.4,3.3-4.7,3.8-7,5.8
		c-0.8,0.7-1.7,0.7-2.6,0.1C177.6,183.2,177.8,182.3,177.9,181.4z M176.6,92.2c0.1,0.3-0.1,0.7-0.2,1c-0.6,1.5-1.2,2.9-1.9,4.6
		c-1.8-1.7-3.5-3.4-5.3-5.2c1.2-0.9,2.2-1.7,3.3-2.5c-1,0.4-1.9,0.9-3.1,1.4c0-2.7,2.5-3,3.1-4.8c0.3,0.8,0.7,1.5,0.8,2.2
		c0.1,0.3-0.2,0.6-0.3,1C174.1,89.7,176.4,91.2,176.6,92.2z M162.7,109.7c0.6-1,1-1.7,1.4-2.5c0.6-1.2,1.1-2.1,2.7-1.5
		c1.2,0.5,2.5-0.7,3-2c0.3-0.7,0.7-1.4,1.1-2.1c0-0.1-0.1-0.2-0.1-0.3c-0.4,0.6-1.1,1.1-1.2,1.8c-0.4,1.5-1.5,1.9-2.6,2.1
		c-1.1,0.2-1.6-0.5-1.3-1.7c0.4-1.2,0.8-2.3,1.2-3.5c0.2-0.5,0.5-1,0.3-1.4c-0.4-1.3,0.2-2.2,1.2-3.3c1.9,2,3.9,3.9,5.8,6
		c0.3,0.3,0.3,0.9,0.4,1.4c0.1,2.7,0.3,5.4,0.3,8.1c0,0.6-0.4,1.2-0.8,1.7c-0.5,0.5-1.1,0.9-1.7,1.3c-2.3,1.6-2.6,1.7-4.9-0.1
		c-0.8-0.6-1.3-1.7-2-2.4C164.6,110.7,163.6,110.2,162.7,109.7z M163.9,113.1h-2.1c0.1-0.6,0.2-1.2,0.4-2.2
		C162.9,111.8,163.2,112.3,163.9,113.1z M171.3,118.7c1.1-1.1,2.4-2,3.8-3.2c0.2,2.6,0.3,4.9,0.5,7.1c-1.7,0.6-4.3-0.9-4.6-2.7
		C170.9,119.5,171,119,171.3,118.7z M173.5,72.4c0.7,1.4,1.9,2.7,3.1,3.7c0.8,0.6,1,1.1,0.6,1.9c-1.1,2.1-2.2,4.2-3.5,6.1
		c-1.1,1.7-2.5,3.2-4,4.7c0.1-0.3,0.1-0.6,0.2-1c-0.3,0.2-0.5,0.4-0.7,0.5c-0.6-1.4-1.2-2.7-1.8-4c-0.1,0.1-0.3,0.1-0.4,0.2
		c1.5,2.2,1.8,4.6,1.3,7.3c-2.6-2.4-4.7-4.9-3.9-8.9c0.2-0.9,0.3-1.8,0.3-2.7c0-1.9,0.1-3.9-0.1-5.8c-0.2-1.6,0-2.8,1.3-3.7
		c1.7-1.3,3.5-2.7,5.4-4.2C172,68.5,172.6,70.6,173.5,72.4z M171.3,66.2c-1.7,0.8-3.2,1.6-4.7,2.1c-1.2,0.4-1.7-0.2-1.4-1.5
		c0.2-0.8-0.3-2.1,1-2.3C167.8,64.3,169.6,63.9,171.3,66.2z M169.2,62.9c0,0.2,0,0.3-0.1,0.5c-1.1,0.1-2.3,0.3-3.6,0.4
		c0.1-1,0.2-1.7,0.4-2.8C167.2,61.8,168.2,62.3,169.2,62.9z M159.1,48.1c1.1-3.5,2.3-7,3.5-10.4c0.8,0.9,1.8,2,2.7,3.2
		c0.3,0.4,0.6,1,0.6,1.5c-0.2,5.3-0.4,10.6-0.6,15.9c-0.2,0-0.3,0.1-0.5,0.1c-0.7-0.6-1.5-1.2-2-2c-1.2-1.8-2.5-3.6-3.5-5.6
		C158.9,50.1,158.8,48.9,159.1,48.1z M152.4,54.4c1.3-0.3,2.2-1,2.9-2.3c0.4-0.9,1.3-1.5,2-2.4c1.4,2.4,2.6,4.7,3.9,6.8
		c0.9,1.4,2,2.7,3,4c0.2,0.3,0.4,1,0.2,1.2c-0.3,0.3-1,0.6-1.2,0.4c-1.2-1-2.3-2-3.3-3.2c-0.7-0.8-1-2-1.7-2.9
		c0.3,0.9,0.5,1.9,0.9,3.2c-1.5-0.3-2.8-0.5-4.3-0.8c0,0.1-0.1,0.2-0.3,0.4c-0.1-0.1-0.3-0.1-0.4-0.2c0.4-1.3,0.8-2.6,1.2-3.8
		c-1.2,0.4-0.8,2.5-2,3.1c-0.1-0.1-0.2-0.2-0.3-0.3c-0.1,0.3-0.1,0.7-0.2,1c-0.6-1.2-1.2-2.4-2-3.7C151.7,54.7,152,54.5,152.4,54.4z
		 M155.6,65.4c0.2,0.4,0.1,1.3-0.2,1.5c-0.6,0.4-1.4,0.7-2.1,0.7c-0.2,0-0.7-1.1-0.6-1.6c0.2-1.1,0.7-2.1,1.2-3.4
		C154.6,63.8,155.2,64.5,155.6,65.4z M156.2,59.2c0.8,0.1,2.2-0.1,3.2,0.6c1.5,1,2.7,2.5,4.1,4c-1.9-0.2-2.4,0.9-2.7,2.6
		c-0.1,0.7-0.6,1.3-1,2c-1.2-0.7-2.2-1.3-3.3-1.9C156,64.2,153.4,62.1,156.2,59.2z M156.9,72.5c-2.3,0.3-3.4-0.6-3.6-3.3
		C154.6,70.4,155.8,71.5,156.9,72.5z M156.7,71.2c-0.8-0.6-1.7-1.2-2.6-1.9c0.7-0.6,1.1-1,1.7-1.5c0.4,1.1,0.8,2.1,1.2,3.1
		C156.9,70.9,156.8,71.1,156.7,71.2z M156.5,67.8c0.1-0.1,0.2-0.3,0.3-0.4c0.8,0.4,1.7,0.8,2.8,1.4c-0.8,0.7-1.4,1.3-2.1,2
		C157.1,69.8,156.8,68.8,156.5,67.8z M163.2,70.2v10.7c-0.2,0.1-0.4,0.1-0.6,0.2c-0.8-1.5-1.5-3-2.3-4.5c-0.8-1.5-1.6-3-2.4-4.5
		C160.1,69,160.1,69,163.2,70.2z M160.9,68.8c0.5-1.3,0.8-2.4,1.4-3.4c0.2-0.4,1-0.3,1.8-0.5c-0.2,1.8-0.3,3.2-0.5,4.9
		C162.6,69.4,161.7,69.1,160.9,68.8z M153,58.7c-0.4,0.4-0.7,0.8-1.1,1.1c-0.2,0.1-0.9-0.1-0.9-0.3c-0.2-0.5-0.1-1.2-0.1-1.9
		C151.8,58,152.4,58.3,153,58.7z M146.1,65.4c1.7-1.7,3.5-3.3,5.4-4.7c0.4-0.3,1.4,0.5,2.1,1c0.1,0.1-0.1,1-0.3,1.4
		c-1.1,1.6-1.7,3.1-0.6,5c-1.2,1.1-2.3,0.9-3.5,0.3c-0.9-0.5-1.9-0.8-2.8-1.2C145.5,66.7,145.6,65.9,146.1,65.4z M138.3,84.9
		c1.1,0.2,2.3,0.1,3.4-0.3c1.4-0.5,2.4,0,3,1.2c1,2,1.7,4.1,2.7,6.4c-5.5-0.5-9.8-3.4-14.8-5.7C134.6,85.5,136.2,84.5,138.3,84.9z
		 M149.4,98.5c-1.5-0.4-2.9-0.8-4.4-1c-1.4-0.1-2.9,0.1-4.6,0.2c0.3-0.8,0.5-1.4,0.7-2.1c0.6-1.6,1.3-1.9,2.8-1.6
		c0.8,0.2,1.5,0.5,2.3,0.7C148,95.2,148.9,96.6,149.4,98.5z M135.9,89.2c0,0.2-0.1,0.4-0.1,0.6c-0.4,0-0.8,0.2-1.1,0.1
		c-1.5-0.6-3-1.6-4.7-0.2c0-0.1-0.1-0.3-0.1-0.4c0.2-0.4,0.3-0.8,0.5-1.2c0.4-0.9,0.9-1.3,1.9-0.7C133.4,88.1,134.6,88.6,135.9,89.2
		z M122.7,66.2c0.2-1,0.5-2.1,0.7-3.1c0.1,0,0.3,0,0.4,0c0.3,1.6,0.6,3.1,0.8,4.7C122.9,68.4,122.4,68,122.7,66.2z M126.7,82.1
		c-0.7-0.5-1.4-1.2-2.2-1.5c-2.8-0.7-4.3-3.1-5.9-5.3c-0.8-1.1-0.5-1.8,0.7-2.5c0.6-0.4,1.3-0.6,1.8-1.2c0.7-0.8,1.3-1.8,2.2-3.1
		c0.8,0.4,2,0.9,3.1,1.7c1.8,1.5,3.9,2.5,6.1,2.8c1.9,0.3,3,1.3,3.4,3.3c0.4,1.9,1.1,3.7,1.5,5.1c-2.4,1.1-4.4,2.1-6.4,3
		c-0.4,0.2-1,0.1-1.4-0.1C128.5,83.6,127.6,82.8,126.7,82.1z M129,93c-1.3-0.6-2.6-1.3-3.9-1.9c0-0.2,0-0.4,0.1-0.5
		c0.7,0.1,1.4,0,2,0.3c1,0.5,1.6,0.5,2.3-0.5c0.5-0.8,2.5-1.1,3.6-0.6c-0.4,0.4-0.7,0.6-1,0.9c0,0.1,0.1,0.1,0.1,0.2
		c0.2-0.1,0.4-0.2,0.6-0.3c0.4,0,0.8,0,1.2,0c-0.1,0.4-0.1,1-0.4,1.3C131.7,94.3,131.6,94.3,129,93z M135.8,98
		c-2.3,0.1-4.5,0.4-6.9,0.6c1-0.9,1.9-1.9,2.9-2.7c0.5-0.4,1.3-0.9,1.9-0.7c0.4,0.1,0.6,1.1,0.9,1.8c0-0.6,0.2-1.3,0-1.9
		c-0.5-1.2-0.2-2.4,1.1-2.7c2.1-0.4,4,0.2,5.8,1.1c0,0.3,0.1,0.3,0,0.4C139.9,98,139.9,97.9,135.8,98z M136.5,103.1
		c-0.1-1.6,1.4-1,2.2-1.7c0.1,1.5,0.1,2.6,0.2,4.1C137.8,104.8,136.6,104.4,136.5,103.1z M142.3,112.9c-0.5-0.3-0.7-1.1-1-1.7
		c-0.5-1.4-1.1-2.9-1.4-4.4c-0.4-1.7-0.6-3.5-0.8-5.3c0-0.2,0.8-0.9,1.1-0.8c2.3,0.3,4.7,0.6,7,1.1c1.8,0.4,3.1,1.5,4,3.2
		c2.4,4.1,3.9,8.5,5.2,13.5c-2.3-0.4-4.4-0.8-6.5-1.2c-0.6-0.1-0.9-0.5-0.7-1.3c0.1-0.6,0-1.2-0.1-1.8c-0.3-1.4-0.4-2.6,0.4-4.2
		c0.8-1.6-0.5-3.6-1.7-5c0.5,1.2,1,2.3,1.3,3.5c0.1,0.6-0.2,1.3-0.3,1.9c-0.1,0.8-0.3,1.7-0.3,2.5c0,1.1,0.2,2.2,0.3,3.7
		C146.4,115.2,144.3,114.1,142.3,112.9z M146.2,125.6h-2.9c0.7-0.7,1.1-1.1,1.7-1.8c0.4,0.4,0.9,0.8,1.3,1.2
		C146.3,125.3,146.2,125.5,146.2,125.6z M149.1,125.5c-1.3-0.5-2.6-1.1-4.1-1.7c0.7-1.3,1.2-2.3,1.9-3.7c1,1.9,1.8,3.4,2.6,4.9
		L149.1,125.5z M155.7,125.4c-0.9,0.4-2,0.5-2.9,0.9c-1.2,0.5-2,0.1-2.6-1.1c-0.9-1.8-1.8-3.6-3-5.9c1.3-0.2,2.4-0.6,3.4-0.5
		c1.8,0.2,3.6,0.7,5.3,1c0.2,0,0.5,0.1,0.5,0.1c0.1,1.4,0.3,2.7,0.2,4.1C156.6,124.6,156.1,125.2,155.7,125.4z M156.6,103.7
		c-0.6-1.4-1.4-2.7-2.2-4.1c-0.8-1.5-1.7-3-2.4-4.5c-0.8-1.7-1.5-3.4-2.2-5.2c-1.3-3-2.9-6-3.9-9.1c-0.5-1.4-0.2-3.3,0-4.9
		c0.2-1.3,0.7-2.6,1.2-3.8c0.9-2.2,0.9-2.2,3.1-1.8c0.4,0.1,0.8,0,1.2,0c0.4,0,0.8-0.2,1.3-0.3c0.5,1.3,0.8,2.8,2.4,2.9
		c0.5,0,1.1-0.2,1.7-0.4c0,0,0,0,0,0c1,1.4,2.1,2.7,3,4.1c0.4,0.7,0.5,1.6,0.8,2.5c-1.6,0.4-2.7-0.4-3.8-2c0.4,1.9,1.5,2.4,2.8,2.6
		c1.6,0.2,3.1,1.5,2.9,3.2c-0.5,5,1.5,8.6,4.5,11.5c-0.6,2.7-1,5.2-1.8,7.6c-0.8,2.3-1.9,4.5-2.9,6.8c-2.2-1.7-2.6-2.8-1.8-5.3
		c0.5-1.5,1.1-3,1.7-4.5c0.6-1.4,0.5-2.7-0.3-3.9c-1.2-1.7-2.6-3.3-3.9-4.9c-0.2-0.2-0.4-0.4-0.6-0.6c-2.6-2.4-2.6-2.7-0.9-5.9
		c0.1-0.2,0.2-0.5,0.1-0.9c-0.7,1-1.4,2-2,3.1c-0.6,1.2,0,2.5,1.3,3.6c1.7,1.5,3.3,3.1,4.7,4.9c1,1.3,1.1,3,0.5,4.6
		c-0.7,1.8-1.3,3.6-2.1,5.4c-0.6,1.3-1,2.6,0.7,3.5c-0.5,0.4-1,0.8-1.6,1.3C157.8,107.5,157.3,105.6,156.6,103.7z M159,110.8
		c-0.1-0.5,0.4-1.2,0.8-1.7c0.1-0.2,0.8-0.1,0.9,0c0.4,0.6,1.1,1.4,1,2c-0.2,1-0.9,2-1.6,3.3C159.6,113,159.1,111.9,159,110.8z
		 M164.1,142.5c0.1,2.9,0.1,5.7-1.2,8.5c-0.3-2.1-0.5-4.1-0.9-6.2c-1.2-7.1-1.4-14.3-1.3-21.5c0-2.4-0.2-4.9-0.5-7.3
		c-0.1-1.3,0.4-1.8,1.6-2.3c2.7-0.9,4.1,1.2,6,2.4c0.2,0.1,0.3,0.9,0.1,1.1c-0.4,0.5-1,1-1.6,1.4c-1.4,0.9-1.6,2.4-0.3,3.5
		c1.1,0.9,1.2,2,0.7,3.3C164.7,130.9,163.9,136.6,164.1,142.5z M173.2,151.7c-1.2,6.2-2,12.6-2.9,18.9c0,0.3-0.1,0.5-0.3,1.3
		c-0.6-1.3-1.1-2.1-1.5-3.1c-1-3.1-2.2-6.1-2.9-9.3c-0.3-1.4,0-3.2,0.5-4.7c1.8-5.4,2-10.9,1.2-16.5c-0.2-1.7,0.2-3.6,0.5-5.3
		c0.5-2.6,1.1-5.2,1.6-7.8c0.3-1.2,0.9-1.8,2.1-1.6c1.3,0.2,2.5,0.3,4.3,0.4c0,1.4-0.1,3,0,4.6C176.1,136.4,174.7,144.1,173.2,151.7
		z M175.8,206.3c0-0.6,0-1.3,0-2.4c0.2-2.4,0.5-5.2,0.8-8c0-0.5,0.1-1,0.4-1.4c2.2-3.2,4.6-6.2,7.9-8.1c0.7-0.4,1.2-0.5,1.8,0.2
		c0.6,0.8,0.3,1.3-0.2,2c-1.7,2.1-1.8,4.3-0.3,6.8c1.1,2,1.2,5.6-0.1,7.8c-0.2,0.4-0.9,1.4-1.2,1.6c-2.4,2-2.2,2.4-4.8,4
		C177.4,210.6,176,209.6,175.8,206.3z M188.7,215.2l-1.2,0.6c-1.1,0.4-1.6,0.9-2.8,1.3c-1.7,0.5-3.4,0.5-5,1.7c-0.8,0.6,0,0-0.8-1
		c0-0.1-0.1-0.1-0.1-0.2c1.1-3.2,1.7-3.1,4.1-5c2.5-2,5-4.1,7.8-5.4c2.6-1.3,5.7-1.6,8.7-2.3c0.3,1.7-0.5,2.4-1.2,3.2
		c-1.3,1.3-2.5,2.7-3.8,4c-0.6,0.6-1.2,1.1-1.9,1.4C191,214.1,189.6,214.3,188.7,215.2z M225.8,212.6c-3.3,2.5-7,3.1-10.8,3.3
		c-7.5,0.5-15,0.9-22.5,1.3c-0.7,0-1.5,0-2.2,0c0,0,0.3-0.7,0.3-0.9c0.5-0.4,0.4-0.5,1-0.9c1.2-0.9,2.5-1.6,3.7-2.6
		c1-0.8,2.5-0.8,3.5,0l0.1-0.1c0.2-0.4,0.2-0.8,0.5-1.1c0.2-0.1,0.9-0.3,1.4-0.5c0.3-0.1,1-0.4,0.9-0.6c-0.7,0.1-4,0.9-5.4,1.1
		c-0.1-0.2-0.2-0.3-0.2-0.5c1.1-0.8,2.1-1.9,3.3-2.4c1.3-0.6,1.8-1.3,1.6-2.7c-0.2-1.6,0.3-2.4,1.8-2.7c1.2-0.3,2.4-0.8,3.5-1.5
		c3.3-2.1,6.5-1.8,9.8,0c0.3,0.2,0.7,0.3,1.2,0.5c-1.3,2-2.8,3.5-4.9,4c-1.2,0.3-2.2,0.8-3.2,1.4c-1.8,1-3.9,1.5-5.9,2.2
		c-0.9,0.3-1.1,0.3-2,0.6c0,0.1-1,0.5-0.4,0.5c0.4,0,2.3-0.6,2.8-0.7c0.9-0.2,1.5-0.1,2.1,0.7c0.2-0.5,0.2-1.2,0.5-1.4
		c2.1-1,4.1-2,6.3-2.7c1.3-0.4,2.8-0.4,4.3-0.2c-0.4-0.3-0.9-0.6-1.3-0.8c0-0.2,0-0.3,0-0.5c2.7-0.2,5.4-0.1,8.1-0.4h-6.5
		c0-0.1,0-0.3-0.1-0.4c0.2-0.2,0.4-0.3,0.6-0.5c-0.2-0.1-0.4-0.2-0.7-0.3c0.3-0.5,0.5-0.9,0.8-1.3c5.8,1.7,11.6,3.3,17.7,5.1
		c-1.1,0.4-1.9,0.7-2.7,1.1C230.3,210.1,227.9,211.1,225.8,212.6z M248.9,211.9c-0.2-1.3-0.3-2.2-0.3-2.9c-0.2,1.1-0.2,2.5-0.6,3.7
		c-1.1,2.7-2.9,4.2-5.9,3.9c-1.7-0.2-3.5,0-5.3,0.3c-1,0.1-2,0.6-3,0.9c-0.6,0.2-1.3,0.3-1.9,0.2c0.9-1.7,2.2-2.4,3.9-2.4
		c1.8,0,3.5,0,5.3,0c1,0,1.7-0.3,1.8-1.6c0.1-0.8,0.4-1.6,0.6-2.4c-1.6,0.5-0.2,3.4-2.4,3.5c0-0.5-0.1-1-0.1-1.5
		c-0.3,1.4-1.3,1.7-2.4,1.5c-2.6-0.3-5,0.1-7.2,1.9c-1.5,1.2-2.9,0.3-4.2-0.7c-0.2-0.2-0.3-0.8-0.2-1.1c0.1-0.3,0.4-0.7,0.7-0.8
		c3.3-1.1,5.9-4.4,9.7-4.2c0.8,0,1.2-0.3,1.3-1.3c0.2-1.7,2.3-2.9,3.8-2.5c0.8,0.2,1.6,0.2,2.4,0.4c0.9,0.2,1.9,0.3,2.6,0.7
		c1.1,0.6,2.1,1.5,3.3,2.4C250.1,210.5,249.6,211.1,248.9,211.9z"/>
	<path class="st0" d="M126,126.5"/>
	<path class="st0" d="M252.3,138.5c2.6,0.6,4.9,0.7,7.2,0.1c-0.3-0.1-0.5-0.2-0.7-0.4c-4.2,0.3-8.1-0.4-11.3-3.5
		c-0.7-0.1-1.4-0.3-2-0.5c0.1,0.1,0.1,0.1,0.2,0.2c1,1,2.1,1.9,3.2,2.7c1.3,0.9,2.7,1.6,3.8,2.6c2.3,2.2,4.9,1.7,7.6,1.4
		C255.2,140.9,254,140.6,252.3,138.5z"/>
	<path class="st0" d="M231.4,81.3c0.1-0.2,0.1-0.4,0.2-0.6c0-0.1,0-0.2,0-0.3c-0.1-0.8,0.3-1.9,1-2.6c-0.1-0.2-0.1-0.4-0.2-0.6
		c-1.1,0.9-1.5,2.4-0.9,4C231.4,81.2,231.4,81.3,231.4,81.3z"/>
	<path class="st0" d="M151,49.3c-1-0.4-1.4-1.1-1.2-2.2c0.7-2.9,0.4-5.6-0.3-8.5c-0.3-1.2,0.2-2.7,0.3-3.6c0.3,2.4,0.6,5.2,0.9,8
		c0.1,0.7,0,1.4-0.2,2.1C150.2,46.6,150,48,151,49.3z"/>
	<path class="st0" d="M197.3,49.7c-3.7,0-7.2-0.4-6.9-0.4c0-0.1-0.4-0.4-0.4-0.4c1.7,0,5.7,0.6,7.3,0.6
		C197.3,49.5,197.3,49.6,197.3,49.7z"/>
	<path class="st0" d="M228,102.4C228,102.4,228,102.4,228,102.4c0.1-0.1,0.1-0.1,0.1-0.3c-1.1-0.4-3.2-0.9-4.2-1.3
		c0.3,0.2,0.6,0.5,1,0.6C224.6,101.4,227.3,102.1,228,102.4z"/>
	<path class="st0" d="M145.2,119.9c-0.6,0.3-1.1,0.8-1.7,0.9c-1.6,0.1-3.1,0.1-4.7,0c-0.4,0-0.8-0.5-1.2-0.8
		C140.2,120.9,142.7,120.3,145.2,119.9z"/>
	<path class="st0" d="M198.9,212.6c1,0.2,2,0.7,3,1c0.8,0.2,1.6,0.5,2.4,0.8c-1.2-0.1-2.4-0.1-3.6-0.4c-0.7-0.3-1.2-0.8-1.9-1.2
		L198.9,212.6z"/>
	<path class="st0" d="M205.5,211.4c1.2,1.7,3,0.6,4.5,0.9c-0.8,0.2-1.5,0.4-2.3,0.5C206.7,212.9,205.8,212.7,205.5,211.4
		C205.6,211.3,205.5,211.4,205.5,211.4z"/>
	<path class="st0" d="M168.9,34.9c-0.6-0.7-1.2-1.3-1.8-2c0.7-0.7,1.3-1.4,2-2c0.5-0.5,1.2-0.8,1.9-1c-1.1,0.9-2.2,1.8-3.3,2.7
		C168.1,33.4,168.6,34.1,168.9,34.9C169,34.8,168.9,34.9,168.9,34.9z"/>
</g>
<g>
	<g>
		<path class="st0" d="M126.5,147.5c-0.1,0-0.2,0-0.3-0.1l-0.7-0.2c0.3,0.2,0.7,0.4,1.2,0.3L126.5,147.5z M122.3,146.3
			c0.1,0.1,0.6,0.2,1,0.3L122.3,146.3z"/>
		<path class="st0" d="M133.5,159.1c-0.5-0.2-0.8-0.3-1.1-0.4l0.8,0.3L133.5,159.1c0.1,0.1,0.2,0.1,0.3,0.1
			C133.7,159.1,133.6,159.1,133.5,159.1z"/>
		<path d="M123.6,146.6l0.2,0.1c-0.2,0-0.4,0-0.6-0.1c-0.5-0.1-0.9-0.2-1-0.3c-0.7-1.4-2.1-0.6-3.4-1c-1.9-0.5-3.9-1-5.7-1.6
			c-0.6-0.2-1-1-1.5-1.5c0.5-0.4,0.9-1,1.5-1.1c1.7-0.3,3.5-0.5,5.2-0.7c-1.6,0.2-3.3,0.4-4.9,0.6c-0.5,0.1-1,0.7-1.5,1.1
			c0.5,0.5,0.9,1.3,1.5,1.5c1.9,0.6,3.8,1.1,5.7,1.6c1.3,0.4,2.7-0.4,3.4,1C122.6,146.4,123.1,146.5,123.6,146.6z"/>
		<path d="M126.5,147.5c0.1,0,0.1,0,0.2,0c0,0,0,0,0,0c-0.6,0-0.9-0.1-1.2-0.3c-0.1-0.1-0.2-0.1-0.3-0.2l0.6,0.2
			c0.1,0.1,0.3,0.2,0.4,0.2C126.3,147.4,126.4,147.4,126.5,147.5z"/>
		<path d="M134.2,149.5c0.5,0,0.9,0,1.3-0.1c-0.5,0-1.1,0.1-1.7,0.1c-1.6,0-3.3-0.5-4.9-0.8c-1.2-0.2-1.7-1-2.1-1.9
			c-0.1-0.5-0.1-0.9-0.2-1.3c0.5,1.4,0.9,2.9,2.6,3.2C130.9,149,132.6,149.5,134.2,149.5z"/>
		<path d="M142.5,145.7c-0.5,0.1-0.9,0.2-1.5,0.5c-1.2,0.6-2.3,1.2-3.6,1.7c-0.7,0.3-1.4,0.4-2,0.5c0.6-0.1,1.2-0.2,1.7-0.5
			c1.2-0.5,2.4-1.1,3.6-1.7C141.4,145.9,142,145.7,142.5,145.7z"/>
	</g>
	<path class="st8" d="M143.4,171.2c3.9,3.6,10.4,5,15.9,8.2c1,0.6,2.1,1.2,2.9,2.1c1.6,1.6,2.2,3.9,2.7,6.2c0,0.1,0,0.2,0,0.3
		c0,0.3-0.7,0.9-1,0.8c-1.4-0.2-2.9-0.4-4.1-1.1c-2-1.1-4-2-6.1-2.6c-0.1,1.3-0.3,2.5-0.7,3.7c0.2,0.5,0.4,0.9,0.6,1.4
		c3.9,1.3,7.5,3.1,10.3,6.3c0.8,0.9,1.2,1.9,1.1,3.2c0,0.7-0.1,1.3-0.1,2c0.1,0.1,0.3,0.1,0.4,0.2c0,0,0,0,0,0c0.1,0,0.2,0,0.4,0
		c0.3-0.1,0.5-0.1,0.6-0.1c0,0,0,0,0,0c0.7-0.2,0.8-0.3,2-1.4c0.7-0.8,1.5-1.7,2.2-2.8c-0.1-2.1-0.3-4.3-0.7-6.5
		c-1.7-9.4-4.9-18.4-7.2-27.6c-1.4-5.9-2.6-12-5.5-17.4c0.1,0.7,0.2,1.4-0.1,1.6c-1.2,1-3,0.9-4.8,0.5c2.4-3.4,0.3-5.6-1.5-7.9
		c1.2,2.5,3.6,4.8,0.7,7.9c-1.9,0-3.8-0.5-4.9-2.4c-0.2-0.4-0.5-0.8-0.8-1.2c-1.3-1.6-2.5-2.4-4.5-0.7c-1,0.9-2.3,1.5-3.4,2.3
		c-2.4,1.6-5.1,1-6.6-1.5c-0.8-1.5-1.5-3-2.3-4.5c-1-1.9-1.8-2-3.7-1.5c-1.6,0.5-3.4,0.7-5,0.9c-1.5,0.2-4,0.3-5.9,0.4
		c2.6-4.6,8.3-7.7,9.8-10.4c-0.7,0.3-4.5,0.5-5.4,0.5c-0.2,0-0.4,0-0.5,0c-0.8,1-1.7,2.1-2.5,3.1c-1-0.7-1.6-1.7-1.9-2.8
		c-0.4,0-0.7,0-1-0.1c0.6,1.1,1.5,2.1,2.1,3.3c0.3,0.5,0.4,1.4,0.2,1.8c-0.6,0.9-1.4,1.7-2.3,2.2c-1.2,0.6-2.5,0.9-3.8,1.2
		c-2,0.5-3,0-3.8-2c-0.6-1.6-1.3-3.3-1.9-4.9c0-0.1-0.1-0.1-0.1-0.2c-0.2,0.1-0.4,0.2-0.6,0.2c0.3,0.5,0.5,1.1,0.8,1.7
		c0.8,1.9,1.6,3.8,2.4,5.9c-1.6,0.9-3.3,1.4-5.1,1.2c-0.4,0-0.7-0.4-0.8-0.8c-0.1-1.5-0.2-2.9-0.2-4.4c0-0.6,0.1-1.2,0.1-1.9
		c-0.2,0-0.3,0-0.5,0c-0.1,2.3-0.3,4.6-0.4,7.3c-0.6,0.3-1.4-0.1-2.1-0.9c-0.7-0.8-0.9-1.4-0.1-2.5c0.5-0.6,0.2-1.8-0.1-2.8
		c-0.1,0.5-0.2,1-0.3,1.5c-0.2,1.4-1.3,2-2.4,1.1c-0.8-0.6-1.7-1.3-2.5-2c-0.6,0.2-1.2,0.4-1.9,0.4c0.6,0.6,1.3,1.3,1.9,1.9
		c-0.5,0.4-0.8,0.7-1.1,0.9c-2.4,1.1-4.9,2.2-7.3,3.3c-1.1,0.5-2,0.6-3.1-0.2c-0.5-0.4-1-0.5-1.5-0.4c0,0.4-1.1,0.8-1.1,1.2
		c0.4-0.1,1.9,0.1,2.5,0.6c0.6,0.4,1.7,0.7,2.4,0.5c2.5-1,4.8-2.3,7.2-3.4c3.3-1.5,3.4-1.5,5.7,1.3c0.3,0.4,0.4,1.1,0.6,1.6
		c-0.5,0-1.1,0-1.6,0c-0.2,0-0.3,0-0.5-0.1c-0.1,0.1-0.1,0.2-0.2,0.3c0.4,0.2,0.8,0.4,1.2,0.6c-0.7,0.5-1.3,0.8-1.7,0.8
		c-1.2-0.2-2.4-0.7-3.6-1c-0.8-0.2-1.5-0.3-2.3-0.4c0.7,0.4,1.5,0.7,2.2,0.8c2.2,0.4,4.4,1.8,6.7,0.1c0.5-0.4,1.3-0.3,2.1-0.4
		c-0.4,1.5-11.8,7.3-14.1,7.5c-0.6-0.8-1.2-1.4-1.7-2.1c-0.1,0.1-0.2,0.1-0.3,0.2c0.1,0.3,0.2,0.5,0.4,1c-1.3,0.2-2.5,0.3-3.7,0.5
		c-1,0.2-1.6-0.1-2.1-1c-0.4-0.7-1-1.3-1.4-1.9c1.4,3.4,1.9,3.6,5.2,3c0.7-0.1,1.4-0.3,2-0.3c0.3,0,0.6,0.2,1.3,0.5
		c-1.7,0.4-3.1,0.4-4.2,0.9c-3.1,1.5-6.4,1-9.6,1c-0.5,0-1.1-0.3-1.4-0.6c-0.2-0.3-0.4-0.6-0.6-0.9c-0.1,0.8-1.3,1.5-1.6,2.2
		c1.5,0.2,4,0.4,5.4,0.5c2.5,0.3,5,0.2,7.4-0.8c1.4-0.6,3.1-0.5,4.6-0.8c1.1,1.4,0.3,2.1-0.8,2.4c-2,0.5-4,0.8-6,1
		c-1.6,0.2-3.2,0.3-4.8,0.7c2.3-0.2,4.6-0.4,6.9-0.6c3.2-0.2,6.1-1.2,8.5-3.6c1.1-1.1,2.3-2.3,4.2-2.1c-0.2,0.9-0.4,1.8-0.6,2.6
		c0.7-2.6,2.6-3.1,4.7-3.1c0.3,0,0.6,0,0.8,0c0.9,0,1.7-0.1,2.9-0.2c-0.4,1.1-1.8,4.3-2.2,5.3c0.2,0,1.4-0.1,1.6-0.1
		c0.2-0.7,0.5-3.5,0.7-4.2c0.3-0.8,0.7-1.2,1.6-1.1c2,0,4,0,5.9,0c1.7,0,3.1,0.6,4.4,1.9c-0.8,0.3-1.4,0.6-2.1,0.9
		c1.4-0.3,2.8,1.2,3.6,3.1c0.1,0.2,0.8,0.2,1.2,0.2c0.2,0,0.5,0,0.7,0c0.5-0.4,1.1-2.8,1.8-3.1c0,0,0.9,0,0.9,0
		c1.3-1.1,2.3-2.4,4-2.7c0,0,1.1,0,1.1,0l13.1,3.4c1.5,1.9,3.9,6.1,4.8,7.6c-0.8-0.1-3.9-1.4-6.1-1.7c-0.1,0-0.2,0-0.3,0
		c-0.1,0-0.2,0-0.3,0c-0.1,0-0.2,0-0.3,0c-1.1-0.1-2.1-0.3-3.1-0.4c-0.6-0.1-1.2-0.2-1.7-0.2h0c-0.6-0.1-1.1-0.2-1.4-0.2
		c-2.6,1.4-1.6,4.2-0.3,5.2c1.8,0.1,9.2-0.5,14,1.8C142.5,166.2,141.8,167.7,143.4,171.2z M141.8,158c0.6-0.8,6.5-0.9,7.7-1.1
		l1.2,1.2c0.8,1.4,1.5,2.8,2.3,4.2c-0.2,0.2-0.3,0.3-0.4,0.5c-1.3-0.5-2.6-1.9-3.7-2.7c-1.3-0.9-2.6-0.5-4.3-0.5
		C143.5,159.8,142.1,159.9,141.8,158z M142.8,161c2.6-0.3,5.1-1.1,6.8,1.9c-0.9,0.1-1.6,0.2-2.3,0.3c-0.5,0-0.9-0.3-1.4-0.2
		C144.5,163.2,143.4,163.6,142.8,161z M146.4,168.2l-0.1-0.1c-0.6-0.7-1.2-2.5-1.8-3.2c0.1-0.2,0.1-0.4,0.2-0.7
		c3.1,1,4.7,0.2,7.1-0.1c1.2-0.2,2.1-0.2,2.1,0.9c0.1,0.7-0.5,1.6-1,2.2c-0.2,0.2-1,0-1.4,0c-0.9-0.1-1.9-0.7-2.6-0.4
		C147.7,167.3,147,168.7,146.4,168.2z M164.4,177.7c-0.2,0.1-0.3,0.2-0.4,0.3c-2.1-1.3-4.1-2.3-6.1-3.3c0,0,0,0,0,0
		c-1.1-0.6-2-0.9-3.1-1.8c-1.9-1.5-4.3-2.2-6.4-3.4c1.1-1.1,2-2.8,2.8-1.9c1.2,1.1,1.8,1.1,2.8-0.2c1.7-2.2,4.1-3,6.7-4.2
		C162,168.3,163.2,173,164.4,177.7z M155.8,150.4v4.3c-0.8-0.1-1.4-0.2-2-0.3l-0.1,0.2c0.4,0.2,0.7,0.3,1,0.4
		c1.4,0.4,1.7,0.1,1.5-1.3c-0.2-1.3,0.1-2.4,1.4-3.1c0.9,4.1,1.7,7,2.6,11.1c-1.6,0.4-3.1,2-4.7,2.2c-0.5,0.1-1.3-0.5-1.6-0.9
		c-1.2-1.8-2.3-3.7-3.3-5.6c-0.2-0.3,0-0.9,0.3-1.2c1.3-1.5,2.1-3.2,1.5-5.4C153.8,150.6,154.8,150.5,155.8,150.4z M152.4,151
		c-0.3,1.3-0.7,2.7-1,3.9c-2.2-1.4-4.1-2.7-6.1-4C146.7,150.1,147.8,150,152.4,151z M106,142.4c0,1.9-0.6,3.1-2.3,3.7
		c-0.5-0.6-1-1.3-1.6-2.1C103.4,143.4,104.6,143,106,142.4z M96.7,148.9c-0.8,0-1.7,0-2.7,0c1.7-3.1,5.2-2.6,7.5-4.6
		c0.5,0.8,0.9,1.4,1.4,2.2c-0.4,0.3-0.7,0.6-1,0.9c0,0,0-1.1,0-1.1c0,1.1-1.2,1.1-1.4,1.5C99.6,149.4,98.1,148.9,96.7,148.9z
		 M100.8,149l-0.2-0.4c0.5-0.4,0.9-0.9,1.4-1.3c0.9-0.3,1.8-0.4,2.2,1.2C103,148.7,101.9,148.9,100.8,149z M115.9,151.6
		c-1,0.8-1.9,0.8-2.8,0c-2.2-2.3-5.1-2.9-7.9-3.9c-0.4-0.1-0.7-0.5-0.8-0.5c1-1.6,2.8-2.9,3.8-4.5c1.1-0.1,0.6-0.3,2.2-0.4
		c0.2,1.5,2.4,3.1,3.8,3.4c1.7,0.4,3.4,2,5.1,2.6c0.9,0.4-0.3,0,0.5,0.5C117.6,150.1,117.7,150.3,115.9,151.6z M139.3,149.2
		c-0.6,0.1-1.2,0.1-1.9,0.1c-0.6,0-1.2,0.1-1.9,0.1c-0.4,0-0.9,0-1.3,0.1c-1.6,0-3.3-0.5-4.9-0.8c-1.7-0.4-2.1-1.8-2.6-3.2
		c0.1,0.4,0.1,0.9,0.2,1.3c-0.2-0.4-0.3-0.9-0.5-1.3c0.1,0.6,0.2,1.3,0.2,2c-0.1,0-0.1,0-0.2,0c-0.1,0-0.2,0-0.3-0.1
		c-0.2-0.1-0.3-0.1-0.4-0.2l-0.6-0.2l0,0h0c-0.3-0.2-0.6-0.3-1.1-0.3c0,0-0.1,0-0.2,0h0l0,0l-0.2-0.1c-0.5-0.1-1-0.2-1-0.3
		c-0.7-1.4-2.1-0.6-3.4-1c-1.9-0.5-3.9-1-5.8-1.6c-0.6-0.2-1-1-1.5-1.5c0.5-0.4,1-1,1.5-1.1c1.6-0.3,3.3-0.5,4.9-0.6
		c0.5-0.1,1.1-0.1,1.6-0.1h0c0.6-0.1,1.3-0.1,1.9-0.1c0.4,0,0.7,0,1.1,0c0.9,0,1.7,0,2.6,0c0.6,0,1.4,0.5,1.7,1
		c0.8,1.3,1.4,2.8,2.2,4.2c1.2,2.1,3.3,3.1,5.5,3h0.1c0.1,0,0.2,0,0.3,0h0.1c0.7,0,1.4-0.2,2-0.5c1.2-0.5,2.4-1.1,3.6-1.7
		c0.5-0.3,1-0.4,1.5-0.5c0.1,0,0.1,0,0.1,0c1.3,0,2.3,0.9,3,2.9c-0.4,0.1-0.7,0.2-1,0.2C142.9,148.9,141.1,149.1,139.3,149.2z"/>
</g>
<path class="st9" d="M154.6,134.6c-2.7-0.1-5-1.9-7.2-3.3c-2.8-1.8-5.7-3.3-8.8-4.5"/>
<path class="st8" d="M133.9,133.8c1.3-0.4,2.2-1.7,3.4-2.2c1.5-0.6,3.2,0,4.5,0.9c1.4,0.8,2.6,1.9,4.2,2.2c1.2,0.3,2.6,0.1,3.6,0.8
	c0.6,0.5,1,1.2,1.4,1.9c1,1.7,2.2,3.2,3.7,4.4c-0.2-1.6,0.4-3.2,1.5-4.4c-0.4-1.5-1.8-2.6-3.2-3.2c-1.5-0.6-3-0.9-4.3-1.8
	c-0.8-0.5-1.4-1.2-2.1-1.8c-1.2-1-2.6-1.9-4-2.7c-1.1-0.7-2.3-1.4-3.7-1.5c-1.2-0.1-2.4,0.4-3.6,0.6c-0.9,0.2-1.9,0.2-2.8,0.2
	c-0.4,0-0.7-0.1-1-0.3c-0.3-0.2-0.4-0.6-0.5-1c-0.5-1.5-1.8-2.8-3.3-3.4c-1-0.4-2.4-0.3-2.6,0.8c-0.1,0.5,0.2,1,0.4,1.4
	C127.8,128.4,131.5,130.3,133.9,133.8z"/>
<path class="st8" d="M142,133.2c-0.8,0.6-1,1.6-1.6,2.5c-0.9,1.4-2.5,2-4.1,2.1c-1.6,0.1-3.2-0.1-4.8-0.1c1.8,0.3,3.7,0.7,5.5,1
	c0.6,0.1,1.2,0.2,1.8,0.1c1.7-0.5,2.1-3.1,3.8-3.7c0.6-0.2,1.2-0.2,1.8-0.4C146.9,133.8,143.4,132.2,142,133.2z"/>
<path class="st10" d="M141.8,156.4c1.7-1.5,5.2-0.8,7.4-0.8c-1-1.1-2.2-2-3.5-2.7c-0.5-0.2-1-0.4-1.6-0.4c-1-0.1-3.4-0.8-4-0.2
	c-0.4,0.4-0.8,0.6-0.5,1.1c0.6,0.8,1.1,1.9,1.5,2.7C141.2,156.4,141.2,156.9,141.8,156.4z"/>
<path class="st8" d="M148.6,233.5c1.2-0.2,2.5-2.8,3.7-3.6c2.1-1.4,3.9-3.1,3.3-5.2c1.4-1.2,1.8-0.9,3.6-1.6
	c0.7-0.3,1.4-1.2,2.2-1.6c0.7-0.4,0.7,1.4,1.5,1.1c-0.9,2.6-4.7,4.5-6.7,6.3c-1.3,1.1-2.3,2.3-3.8,3.1
	C151,232.4,150.3,232.6,148.6,233.5z"/>
</svg>
